<?xml version="1.0" standalone="no"?>
<!DOCTYPE svg PUBLIC "-//W3C//DTD SVG 1.1//EN" "http://www.w3.org/Graphics/SVG/1.1/DTD/svg11.dtd">
<svg xmlns="http://www.w3.org/2000/svg">
<metadata>Generated by Fontastic.me</metadata>
<defs>
<font id="victoriamilan" horiz-adv-x="512">
<font-face font-family="victoriamilan" units-per-em="512" ascent="480" descent="-32"/>
<missing-glyph horiz-adv-x="512" />

<glyph glyph-name="chat" unicode="&#98;" d="M410 319c0 84-92 152-205 152-113 0-205-68-205-152 0-52 31-97 85-125 0 0 0 0 0-1 0-22-13-47-20-60l0 0c-1-2-1-3-1-5 0-6 5-11 12-11 1 0 2 0 3 0 0 0 0 0 0 0 40 6 84 41 93 52 9-1 15-2 22-2 3 0 7 0 11 0 113 0 205 68 205 152z m-216-126c-7 0-11 0-19 1l-14 2-9-11c-4-5-26-23-50-34 5 13 9 27 9 40l0 1 0 18-14 7c-45 23-71 60-71 102 0 70 80 127 179 127 99 0 179-57 179-127 0-69-80-126-179-126l-6 0z m318 18c0 45-28 84-75 107 0-2 0-3 0-5 0-8-1-15-2-23 34-18 51-47 51-79 0-34-19-64-56-83l-13-7c-4-15 6-45 6-45-18 10-32 26-35 29l-10 12c0 0-8-2-38-3-29 0-71 10-98 28-11-1-26-4-38-4l-1 0c31-26 64-45 134-49 3 0 21 0 29 1 7-9 46-44 80-49 0 0 0 0 0 0 1 0 2 0 3 0 5 0 9 6 9 11 0 1 0 6 0 6l0 0c-7 12-17 30-18 49 46 23 72 60 72 104z m-72-104c0 0 0 0 0 0 0-1 0-1 0 0z"/>
<glyph glyph-name="wink" unicode="&#99;" d="M256 512c142 0 256-115 256-256 0-142-115-256-256-256-142 0-256 115-256 256 0 142 115 256 256 256m235-256c0 129-105 234-235 235-129 0-234-105-235-235 0-129 105-234 235-235 129 0 234 105 235 235m-235-151c-34 2-64 13-91 35-7 6-6 15 1 19 5 2 10 0 14-3 16-14 35-23 56-26 29-5 56 0 82 13 33 17 57 43 77 74 5 8 14 9 19 2 3-5 2-9-1-14-11-17-24-33-39-47-23-22-48-38-79-46-12-3-26-4-39-7m-85 215c17 0 31-14 32-32 0-17-15-32-32-32-18 0-32 14-32 32 0 17 14 32 32 32m171-19c20-1 38-6 53-19 3-3 7-7 9-12 3-4 1-9-3-12-4-3-9-3-13 1-2 2-4 4-7 7-17 14-54 21-75 4-5-5-12-4-15 1-4 4-4 11 2 15 10 9 22 13 35 15 5 0 9 0 14 0"/>
<glyph glyph-name="user" unicode="&#101;" d="M498 59c-3 2-62 40-149 59 32 40 53 94 61 131 12 50 8 147-40 209-28 35-68 54-114 54-46 0-86-19-114-54-48-62-52-159-40-209 8-37 29-91 61-131-87-19-146-57-149-59-11-8-17-23-13-36 4-14 17-23 31-23l448 0c14 0 27 9 31 23 4 13-2 28-13 36z m-174 79l-5-7c-38-44-88-44-126 0l-5 7c-45 56-67 131-57 202 8 68 48 140 125 140 77 0 117-72 125-140 10-71-12-146-57-202z m-292-106c2 1 56 37 137 55l40 8c14-9 30-15 47-15 17 0 33 6 47 15l40-8c80-18 134-53 137-55z"/>
<glyph glyph-name="power" unicode="&#103;" d="M245 213c18 0 32 20 32 43l0 171c0 23-14 42-32 42-17 0-32-19-32-42l0-171c0-23 15-43 32-43z m75 199l0-47c51-27 85-80 85-141 0-88-71-160-160-160-88 0-160 72-160 160 0 61 35 114 86 141l0 47c-75-30-128-103-128-188 0-112 91-203 202-203 112 0 203 91 203 203 0 85-53 158-128 188z"/>
<glyph glyph-name="star" unicode="&#104;" d="M353 200l61-184-158 114-158-114 61 184-159 112 196 0 60 184 60-184 196 0z m-38 93c0 0 0 0 0 0 0 0 0 0 0 0 0 0-1 0-1 0 0 0 0 0-1 0-7 1-13 6-16 12 0 1 0 1 0 1-11 35-41 126-41 126 0 0-29-91-41-125 0-1 0-1 0-1-2-7-8-12-16-12 0-1-1-1-1-1-36 0-134 0-134 0 0 0 77-55 107-76 5-4 9-10 9-16 0-2-1-4-1-5 0-1 0-1 0-1-12-34-42-126-42-126 0 0 78 57 108 78 3 3 7 4 11 4 4 0 8-1 11-3 0 0 0-1 0-1 1 0 1 0 1 0 30-22 107-78 107-78 0 0-30 89-41 125 0 0 0 0 0 0-1 0-1 1-1 1 0 1 0 1 0 1 0 1-1 3-1 5 0 6 3 11 7 15 1 0 2 0 2 1 2 1 4 3 7 4 33 24 100 72 100 72 0 0-96 0-133 0z"/>
<glyph glyph-name="gift" unicode="&#105;" d="M448 445c0 55-58 55-58 55-47 0-111-69-111-69l-11-18 174 0z m-27-10l-109 0c3 2 47 45 77 45 26 0 35-24 35-32 0-8-3-13-3-13z m62-51c-29 0-215 0-215 0l0-99 244 0 0 64c0 0 0 35-29 35z m8-77l-203 0 0 56c0 0 193 0 197 0 5 0 6-8 6-8z m-226-295l175 0c0 0 40 4 40 46 0 42 0 198 0 198l-215 0z m23 223l173 0 0-176c0-15-12-27-26-27l-147 0z m-46 178l-12 18c0 0-64 69-110 69 0 0-59 0-59-54l6-33z m-122 67c30 0 74-43 77-45l-109 0c0 0-3 5-3 13 0 8 9 32 35 32z m-120-131l0-64 244 0 0 99c0 0-186 0-215 0-29 0-29-35-29-35z m224-42l-203 0 0 48c0 0 2 8 6 8 3 0 197 0 197 0z m-195-249c0-42 41-46 41-46l174 0 0 244-215 0c0 0 0-155 0-198z m19 177l173 0 0-203-146 0c-15 0-27 12-27 27z"/>
<glyph glyph-name="search" unicode="&#97;" d="M448 87l-113 114c21 26 33 59 33 95 0 84-68 152-152 152-84 0-152-68-152-152 0-84 68-152 152-152 37 0 70 12 96 33l113-113z m-328 112c-26 26-40 60-40 97 0 36 15 70 40 96 26 26 60 40 96 40 37 0 71-14 97-40 25-26 39-60 39-96 0-37-14-71-39-97-26-25-60-39-97-39-36-1-70 14-96 39z"/>
<glyph glyph-name="camera" unicode="&#108;" d="M0 337l0-226c0-35 28-63 62-63l388 0c34 0 62 28 62 63l0 226c0 32-27 59-59 59l-84 0-2 9c-8 35-38 59-74 59l-74 0c-36 0-66-24-74-59l-2-9-84 0c-32 0-59-27-59-59z m153 33c6 0 11 5 12 10l4 19c6 23 26 39 50 39l74 0c24 0 44-16 49-39l5-19c1-5 6-10 12-10l93 0c19 0 34-15 34-33l0-226c0-21-16-37-37-37l-387 0c-20 0-36 16-36 37l0 226c0 18 15 33 33 33z m-49-54c0-10-8-17-17-17-10 0-18 7-18 17 0 9 8 17 18 17 9 0 17-8 17-17z m152-202c59 0 108 48 108 107 0 60-49 108-108 108-59 0-108-48-108-108 0-59 49-107 108-107z m0 189c45 0 82-36 82-82 0-45-37-81-82-81-45 0-82 36-82 81 0 46 37 82 82 82z"/>
<glyph glyph-name="close" unicode="&#109;" d="M317 256l182 183c17 16 17 44 0 60-16 17-44 17-60 0l-183-182-183 182c-16 17-44 17-60 0-17-16-17-44 0-60l182-183-182-183c-17-16-17-44 0-60 16-17 44-17 60 0l183 182 183-182c16-17 44-17 60 0 17 16 17 44 0 60z"/>
<glyph glyph-name="facebook" unicode="&#107;" d="M188 413c0-13 0-71 0-71l-51 0 0-86 51 0 0-256 106 0 0 256 72 0c0 0 6 41 9 87-9 0-80 0-80 0 0 0 0 50 0 59 0 8 11 20 23 20 11 0 35 0 58 0 0 12 0 53 0 90-30 0-64 0-79 0-111 0-109-86-109-99z"/>
<glyph glyph-name="instagram" unicode="&#110;" d="M66 512l380 0c36 0 66-30 66-66l0-380c0-36-30-66-66-66l-380 0c-36 0-66 30-66 66l0 380c0 36 30 66 66 66z m307-57c-13 0-23-10-23-23l0-55c0-13 10-23 23-23l58 0c13 0 23 10 23 23l0 55c0 13-10 23-23 23z m81-160l-45 0c4-13 7-28 7-43 0-86-72-155-160-155-87 0-159 69-159 155 0 15 3 30 7 43l-47 0 0-216c0-11 9-20 20-20l357 0c11 0 20 9 20 20z m-198 62c-56 0-102-45-102-100 0-55 46-100 102-100 57 0 103 45 103 100 0 55-46 100-103 100z"/>
<glyph glyph-name="twitter" unicode="&#111;" d="M512 415c-19-9-39-14-60-17 21 13 38 34 46 58-20-12-43-20-67-25-19 20-46 33-77 33-58 0-105-47-105-105 0-8 1-16 3-24-87 4-165 46-216 110-9-16-15-34-15-53 0-36 19-69 47-87-17 0-33 5-47 13 0-1 0-1 0-2 0-51 36-93 84-103-9-2-18-3-28-3-7 0-13 0-20 2 14-42 53-73 99-73-36-29-82-45-131-45-8 0-17 0-25 1 46-30 102-47 161-47 193 0 299 160 299 299 0 4 0 9 0 13 20 15 38 34 52 55z"/>
<glyph glyph-name="location" unicode="&#113;" d="M258 400c-36 0-66-30-66-66 0-36 30-65 66-65 36 0 65 29 65 65 0 36-29 66-65 66z m0-112c-26 0-47 21-47 46 0 26 21 47 47 47 25 0 46-21 46-47 0-25-21-46-46-46z m125 171c-34 34-79 53-127 53-48 0-93-19-127-53-62-62-70-180-17-252l144-207 143 207c54 72 46 190-16 252z m1-241l-128-185-128 185c-49 65-42 172 14 228 31 31 71 47 114 47 43 0 83-16 114-47 56-56 63-163 14-228z"/>
<glyph glyph-name="location-full" unicode="&#114;" d="M383 459c-34 34-79 53-127 53-48 0-93-19-127-53-62-62-70-180-17-252l144-207 143 207c54 72 46 190-16 252z m-125-190c-36 0-66 29-66 65 0 36 30 66 66 66 36 0 65-30 65-66 0-36-29-65-65-65z"/>
<glyph glyph-name="more" unicode="&#115;" d="M64 320c-35 0-64-29-64-64 0-35 29-64 64-64 35 0 64 29 64 64 0 35-29 64-64 64z m384 0c-35 0-64-29-64-64 0-35 29-64 64-64 35 0 64 29 64 64 0 35-29 64-64 64z m-192 0c-35 0-64-29-64-64 0-35 29-64 64-64 35 0 64 29 64 64 0 35-29 64-64 64z"/>
<glyph glyph-name="eye" unicode="&#116;" d="M499 261c-51 86-143 141-243 141-100 0-192-55-243-141-2-3-2-7 0-10 51-87 143-141 243-141 100 0 193 54 243 141 3 3 3 7 0 10z m-243-130c-90 0-175 48-222 125 47 77 132 125 222 125 91 0 175-48 222-125-47-77-131-125-222-125z m0 219c-52 0-94-42-94-94 0-52 42-94 94-94 52 0 94 42 94 94 0 52-42 94-94 94z m0-167c-41 0-73 32-73 73 0 40 33 73 73 73 41 0 73-33 73-73 0-41-32-73-73-73z m0 115l0-21c11 0 21-10 21-21 0-11-10-21-21-21-11 0-21 10-21 21l-21 0c0-23 19-42 42-42 23 0 42 19 42 42 0 23-19 42-42 42z"/>
<glyph glyph-name="lock" unicode="&#100;" d="M48 241l0-204c0-20 17-37 37-37l342 0c20 0 37 17 37 37l0 204c0 21-17 38-37 38l-27 0 0 89c0 79-64 144-144 144-80 0-144-65-144-144 0-7 6-13 13-13 7 0 13 6 13 13 0 65 53 118 118 118 65 0 119-53 119-118l0-89-290 0c-20 0-37-17-37-38z m390 0l0-204c0-6-5-11-11-11l-342 0c-6 0-11 5-11 11l0 204c0 7 5 12 11 12l342 0c6 0 11-5 11-12z m-182-154c29 0 52 24 52 53 0 28-23 52-52 52-29 0-52-24-52-52 0-29 23-53 52-53z m0 79c15 0 27-12 27-27 0-14-12-26-27-26-15 0-27 12-27 27 0 14 12 26 27 26z"/>
<glyph glyph-name="logout" unicode="&#119;" d="M442 262l-48 48c-3 3-8 3-11 0-4-4-4-8 0-12l34-34-165 0 0-16 165 0-34-34c-4-4-4-8 0-12 1-1 3-2 5-2 2 0 4 1 6 2l48 48c1 2 2 4 2 6 0 2-1 4-2 6z m-94-78c-4 0-8-4-8-8l0-133c0-10-10-27-17-27l-218 0c-8 0-21 17-21 27l0 433c0 9 12 20 21 20l218 0c16 0 16-8 16-10 0-46 1-137 1-137l16 0c0 0-1 91-1 137 0 16-12 26-32 26l-218 0c-18 0-37-19-37-36l0-433c0-16 18-43 37-43l218 0c19 0 33 28 33 43l0 133c0 4-4 8-8 8z"/>
<glyph glyph-name="navigation" unicode="&#102;" d="M507 507c-5 5-13 6-19 4l-478-206c-6-3-11-10-10-17 1-7 6-14 13-15l206-55 54-205c1-7 8-12 15-13 0 0 1 0 1 0 7 0 13 4 16 10l206 478c2 6 1 14-4 19z m-214-437l-44 167c-1 6-6 11-12 12l-167 44 392 169z"/>
<glyph glyph-name="arrow-right" unicode="&#120;" d="M387 266l-241 242c-6 5-15 5-21 0-6-6-6-15 0-21l231-231-231-231c-6-6-6-15 0-21 3-2 7-4 10-4 4 0 8 1 10 4l242 242c6 5 6 15 0 20z"/>
<glyph glyph-name="check-mark" unicode="&#122;" d="M512 387l-319-319c-2-3-7-3-10 0l-181 181c-3 3-3 8 0 10l44 44c3 3 7 3 10 0l132-132 270 270c3 3 8 3 10 0l44-44c3-2 3-7 0-10z"/>
<glyph glyph-name="blur" unicode="&#67;" d="M253 49c-5 0-10 5-10 10 0 5 5 10 10 10 66 0 119 53 119 119 0 5 4 10 10 10 5 0 10-5 10-10 0-77-63-139-139-139z m0 450c0 0-169-218-169-311 0-94 75-169 169-169 93 0 169 75 169 169 0 93-169 311-169 311z"/>
<glyph glyph-name="blur-partial" unicode="&#68;" d="M171 501l0-430c66 0 120 53 120 119 0 5 4 9 9 9 6 0 10-4 10-9 0-77-62-139-139-139l0-30c94 0 170 75 170 169 0 93-170 311-170 311"/>
<glyph glyph-name="mask" unicode="&#69;" d="M375 233c-42 0-75 29-76 33 0 5 34 34 76 34 42 0 75-28 75-34 1-4-33-33-75-33z m-234 0c-42 0-76 29-76 33 0 5 34 34 76 34 41 0 75-28 75-34 0-4-34-33-75-33z m281 114c-32 8-98 12-164 12l-1 0c-66 0-132-4-163-12-68-18-85-56-82-97 3-31 38-71 105-83 108-20 104 56 140 59 0 0 1-1 1-1 0 0 0 1 0 1 37-3 32-79 140-59 67 12 103 52 105 83 4 41-13 79-81 97z"/>
<glyph glyph-name="mask-1" unicode="&#70;" d="M286 214c-1 20 24 61 43 69 29 13 76 2 94-15-12-45-113-63-137-54z m-200 54c18 17 66 28 95 15 18-8 43-49 43-69-24-9-125 9-138 54z m299 113c-44 0-66-24-129-23l-2 0c-64-1-86 23-130 23-44 0-88-17-112-56 8-76 38-196 114-201 59-3 96 21 128 22 0 0 0 0 1 0 0 0 0 0 1 0 31-1 68-25 127-22 76 5 106 125 114 201-23 39-68 56-112 56z"/>
<glyph glyph-name="mask-2" unicode="&#71;" d="M299 239c0 0 30 114 155 39 0 0-35-76-155-39z m-232 39c126 75 155-39 155-39-120-37-155 39-155 39z m433 74c-11 2-17-12-31-9-6 2-11 5-16 8-25 15-53 21-83 18-15-2-28-5-42-10-9-3-25-12-35-8-5 2-8 9-11 14-5 9-14 17-24 21-11-4-20-12-25-21-3-5-6-12-11-14-10-4-25 5-35 8-14 5-27 8-42 10-30 3-58-3-83-18-5-3-10-6-16-8-14-3-19 11-31 9-12-3-11-17-11-25 2-14 12-25 18-38 10-23 7-47 13-71 10-36 32-68 71-86 23-11 49-9 74-5 15 1 29 5 44 4 15 0 21-10 34-12 12 2 18 12 33 12 15 1 29-3 44-4 25-4 51-6 74 5 39 18 61 50 71 86 6 24 3 48 14 71 5 13 15 24 17 38 0 8 1 22-11 25z"/>
<glyph glyph-name="mask-3" unicode="&#72;" d="M427 259c-17-37-37-62-72-65-16-1-32 3-45 6-22 7-26 5-26 5 4 38 36 55 66 57 20 2 34-4 58-2 16 1 22 4 23 5 0 0 0 0 0 0-1-1-3-3-4-6z m-158 36c1 12 17 39 29 39 8 0 16-6 16-16 0-7-7-18-7-7 0 7-3 10-9 10-14 0-28-24-29-26z m-56 26c-6 0-9-3-9-10 0-11-7 0-7 7 0 10 8 16 16 16 12 0 28-27 29-39-1 2-15 26-29 26z m-12-121c-13-3-29-7-46-6-34 3-54 28-71 65-2 3-3 5-4 6 0 0 0 0 0 0 1-1 7-4 23-5 24-2 38 4 58 2 30-2 62-19 66-57 0 0-4 2-26-5z m291 59c13 12 18 30 18 49 0 21-11 40-27 51-4-63-32-54-35-55-19 1-31 27-71 27-18 0-36-7-51-21l-2 0c1 4 2 7 2 11 0 28-30 41-48 13-2 11-9 44-23 45-13-1-20-34-22-45-18 28-48 15-48-13 0-4 1-7 2-11l-2 0c-15 14-33 21-51 21-40 0-53-26-71-27-3 1-31-8-35 55-16-11-27-30-27-51 0-19 5-37 18-49-19-17 11-86 50-86 6 0 10 0 12 1-1-1-2-3-2-6 0-3 3-9 13-10 50-3 52-34 83-32 43 3 45 51 80 52 36-1 38-49 81-52 31-2 33 29 83 32 10 1 13 7 13 10 0 3-1 5-2 6 2-1 6-1 12-1 39 0 69 69 50 86z"/>
<glyph glyph-name="mask-4" unicode="&#73;" d="M15 329l488 0 0-144-488 0z"/>
<glyph glyph-name="rotate" unicode="&#74;" d="M411 124l98 130-56 0c0 124-100 224-224 224-124 0-224-100-224-224 0-123 100-224 224-224 60 0 114 24 154 62l-51 67c-26-27-62-45-103-45-77 0-140 63-140 140 0 77 63 140 140 140 77 0 140-63 140-140l-56 0 98-130"/>
<glyph glyph-name="crop" unicode="&#75;" d="M499 110l-47 0 0 329c0 7-6 13-13 13l-329 0 0 47c0 7-6 13-13 13l-24 0c-7 0-13-6-13-13l0-47-47 0c-7 0-13-6-13-13l0-24c0-7 6-13 13-13l47 0 0-329c0-7 6-13 13-13l329 0 0-47c0-7 6-13 13-13l24 0c7 0 13 6 13 13l0 47 47 0c7 0 13 6 13 13l0 24c0 7-6 13-13 13z m-389 0l0 292 292 0 0-292z"/>
<glyph glyph-name="undo-arrow" unicode="&#76;" d="M512 63c0 0-57 276-306 276l0 110-206-183 206-191 0 124c135 0 235-12 306-136z"/>
<glyph glyph-name="dot" unicode="&#77;" d="M256 512c-141 0-256-115-256-256 0-141 115-256 256-256 141 0 256 115 256 256 0 141-115 256-256 256z"/>
<glyph glyph-name="envelop" unicode="&#78;" d="M512 381c0 11-4 21-11 29 0 0 0 0 0 0-1 0-1 0-1 0-8 9-19 14-31 14l-426 0c-12 0-23-5-31-14 0 0 0 0-1 0 0 0 0 0 0 0-7-8-11-18-11-29l0-250c0-12 4-22 12-29 0 0 0-1 0-1 0 0 0 0 0 0 8-8 19-13 31-13l426 0c12 0 23 5 31 13 0 0 0 0 0 0 0 0 0 1 0 1 8 7 12 17 12 29l0 250z m-168-112l148 123c1-4 2-7 2-11l0-250c0-4 0-7-2-10z m125 137c4 0 7-1 10-2l-223-185-223 185c3 1 6 2 10 2z m-449-285c-2 3-2 6-2 10l0 250c0 4 1 7 2 11l148-123z m23-15c-4 0-8 1-11 2l149 150 69-57c2-2 4-2 6-2 2 0 4 0 6 2l69 57 149-150c-3-1-7-2-11-2z"/>
<glyph glyph-name="light" unicode="&#79;" d="M256 455c5 0 9 4 9 10l0 38c0 5-4 9-9 9-5 0-9-4-9-9l0-38c0-6 4-10 9-10z m228-171l-38 0c-6 0-10-4-10-9 0-5 4-10 10-10l38 0c5 0 9 5 9 10 0 5-4 9-9 9z m-418 0l-38 0c-5 0-9-4-9-9 0-5 4-10 9-10l38 0c6 0 10 5 10 10 0 5-4 9-10 9z m344 159l-27-27c-3-4-3-10 0-14 2-1 5-2 7-2 3 0 5 1 7 2l27 27c3 4 3 10 0 14-4 3-10 3-14 0z m-295-295l-27-27c-3-4-3-10 0-14 2-2 5-2 7-2 3 0 5 0 7 2l27 27c3 4 3 10 0 14-4 3-10 3-14 0z m282 0c-4 3-10 3-14 0-3-4-3-10 0-14l27-27c2-2 4-2 7-2 2 0 5 0 7 2 3 4 3 10 0 14z m-282 254c2-1 4-2 7-2 2 0 5 1 7 2 3 4 3 10 0 14l-27 27c-4 3-10 3-14 0-3-4-3-10 0-14z m141-13c-63 0-114-51-114-114 0-5 4-10 10-10 5 0 9 5 9 10 0 52 43 95 95 95 5 0 9 4 9 9 0 6-4 10-9 10z m0 47c-89 0-161-72-161-161 0-67 41-127 104-151l0-86c0-5 4-10 10-10l9 0 0-19c0-5 4-9 10-9l56 0c6 0 10 4 10 9l0 19 9 0c6 0 10 5 10 10l0 86c63 24 104 84 104 151 0 89-72 161-161 161z m44-296c-3-1-6-5-6-9l0-17-76 0 0 17c0 4-3 8-6 9-59 19-98 73-98 135 0 78 64 142 142 142 78 0 142-64 142-142 0-62-39-116-98-135z"/>
<glyph glyph-name="wink-full" unicode="&#82;" d="M256 512c-141 0-256-114-256-256 0-141 114-256 256-256 141 0 256 114 256 256 0 141-114 256-256 256m157-307c-11-17-24-33-39-47-23-22-48-38-79-46-12-3-26-4-39-6-34 1-64 12-91 34-7 6-6 15 1 19 5 2 10 0 14-3 16-14 35-22 56-26 29-5 56 0 82 13 33 17 57 43 77 74 5 8 14 9 19 2 3-5 2-9-1-14m-242 115c17 0 31-14 32-32 0-17-15-32-32-32-18 0-32 14-32 32 0 17 14 32 32 32m122-34c10 9 22 13 35 15 5 0 9 0 14 0 20-1 38-6 53-19 3-3 7-7 9-12 3-4 1-9-3-12-4-3-9-3-13 1-2 2-4 4-7 7-17 14-54 21-75 4-5-5-12-4-15 1-4 4-4 11 2 15"/>
<glyph glyph-name="cross-selling-nextlove" unicode="&#85;" d="M512 256c0-141-115-256-256-256-141 0-256 115-256 256 0 141 115 256 256 256 141 0 256-115 256-256z m-191-55c0 0-7 7 3 31 12 32 15 49 5 64-10 17-35 17-46 3-19-22-16-54-16-54 0 0-39 22-65 6-19-11-16-43 17-55 30-10 83-4 102 5z m-203 90c25 29 73 36 108 19 6 46 38 85 82 85 43 0 75-39 73-78-1-33-15-60-35-79-2-2-5-2-3 3 8 17 23 55 1 80-18 21-53 23-73 1-13-15-18-34-18-51 0 0-20 12-48 8-21-3-39-15-44-37-11-45 40-72 98-69 57 3 90 23 90 23 0 0-10 7-14 12 0 0 39 5 68 22 0 0-29-45-45-60 0 0-2 7-4 14 0 0-38-34-106-40-40-4-85 4-115 28-31 25-48 83-15 119z"/>
<glyph glyph-name="cross-selling-babesoncamera" unicode="&#83;" d="M512 256c0-141-115-256-256-256-141 0-256 115-256 256 0 141 115 256 256 256 141 0 256-115 256-256z m-187 49c0 0 0 0 0 1 0 0 0 1 0 2 0 0 0 1 0 2 0 1 0 1 0 1 0 1 0 1 0 1 0 1 0 1 0 1 0 0-1-1-1-1 0-1 0-2 0-2 0 0 0-1 0-1 0-1 0-1 0-1 0 0 0-1 0-2 0 0 0-1 0-1 0 0 0 0 1 0 0 1 0 1 0 0z m-4 73c-1-1-2-1-3-1 0 0 1 0 2-1 1-1 2-1 2-2l0 0c1 0 1 0 1 0 0 1 0 1 0 1l1 0 0 1c0 0-1 0-1 1-1 1-1 1-2 1z m-7 4c0 0-1 0-1 0l-1 0c0 0 0 0 0 0 0 0 0-1 1-1 1 0 1 0 2 0l0 0 0 0c0 0-1 0-1 1z m0-19l-1-2 1-3 1 0c0 0 0 0 0 0 0 0 0 1 0 1 1 1 1 1 1 2l0 0-1 1c0 0 0 0 0 0 0 0 0 0 0 0 0 1 0 1-1 1z m-19-97c0 0 0 0 0 0 0 0 0 0 0 0 0 0 0 0 0 0 0 0 0 1 0 1 0 1 0 1 0 1 0 0-1-1-1-2 0 0 0 0 0-1 0-1 0-1 0-2 0 0 1-1 1-1 0-1 0-1 0-1 0-1 0-1 0-1 0 0 0 1 0 1 0 1 1 1 1 2 0 0 0 0 0 0 0 0 0 1 0 1 0 1 0 1 0 1-1 1-1 1-1 1z m-8 127c0 0 1 0 2-1 0-1 0-1 1-1 0-1 1-1 1-1 1-1 1-1 2-1 1-1 2-1 2-1 1-1 2-1 2-1l-2-1c1 0 1 0 2 0 0 0 1-1 2-1 0 0 1 0 1 0 1 0 1 0 2 0 0 0 0 0 2 0 1 0 2-1 3-1 2 0 3 0 4 0 1 0 1 0 2 0 0 0 0-1 1-1 1 0 1-1 2-1 1-1 2-1 2-1 1-1 2-1 2-1l1 0c0 1-1 1-1 1-1 0-1 1-2 1 0 1 0 1-1 2 0 0-1 0-1 0 0 1-1 1-2 2-1 0-2 1-3 1-2 1-3 2-4 2-1 1-2 1-2 2-1 0-2 0-3 0 0 1-2 1-3 2-1 0-2 1-3 1-1 0-1 0-2 0 0 0 0 0-1 0 0 0-1 0-1 0 0 0-1 0-1 0-1 0-1 0-1 0 0 0-1 0-1 0-1 0-1 0-2-1z m58-37l0 2c0 1 0 1 0 2 0 1 0 1 0 2l-1-1c0 0 0 0 0 0l0-1c0 0 0 0 0-1 1-1 1-1 1-1l0-1c0-1 0-1 0-1z m-8-17c0 0 1 1 1 2 0 0 0 2 1 3 0 1 1 2 1 4 1 0 1 1 1 1 0 0 0 1 0 1 0 1 0 1 0 1 0 0 0 0 0 1 0 0 0 1 0 1l-3-2-6-20 0 0c1 0 1 0 2 0 0 1 1 1 1 1 0 0 1 0 1 1 1 1 1 1 1 2 0 0 0 0 0 0 0 1 0 1 0 2 0 0 0 1 0 1 0 0 0 0 0 1z m-2-23c0 1 0 1 0 1 0 0 0 1 0 1 0 0 0 1 0 1l0 0c-1 1-1 1-1 1l0-1c-1 0-1 0-1 0 0-1 0-1 0-1 0-1 0-1 0-1 0 0 0 0 0 0 0 0 1-1 1-2 0 0 0 0 0-1l1 1c0 0 0 0 0 0 0 1 0 1 0 1z m2-172c0 0-1-1-1-1-1 0-1-1-2-2-1 0-1 0-2-1l-4-2c0 0 0-1 0-2 0-1 0-1 0-1 0-1 1-2 1-4 0-1 0-2 1-3 0-2 0-3 1-4 0-1 0-2 0-2 0 0 0-1 0-1 0 0 0-1 0-2 0-1 0-2 0-3 0-1 0-1 0-1 0-1 0-1 0-2 0 0 0-1 0-2 0-1 0-2 0-2 0-1 0-1 0-1 0-1 0-2-1-3 0 0-1-1-2-2 0-1-1-1-2-2-1-1-1-1-1-2-1-1-3-1-4-1-2 0-4 0-5 0-1 0-1 0-1 0-1 0-2 0-2 0-1 0-1 0-2 0 0 0-1 0-2 1 0 0-1 1-2 1-1 1-2 1-3 2-1 0-2 0-2 1 0 0-1 0-1 0-1 1-1 1-2 1 0 0 0 1-1 1 0 1-1 1-1 1 0 1-1 1-2 2 0 1-1 2-2 3-1 1-2 1-2 2-1 1-2 2-2 2 0 0 0 0 0 1-1 1-1 1-2 2-1 1-1 2-2 3 0 0-1 1-1 2 0 0-1 0-1 1-1 1-1 1-1 2 0 0-1 1-1 2-1 0-1 0-1 1 0 0 0 1-1 1 0 1 0 1 0 2-1 1-1 2-1 3 0 0-1 1-1 1-1 1-1 2-1 3-1 1-2 2-2 4-1 1-2 2-2 4 0 1-1 1-1 2l-5 12c0 1 0 1 0 2-1 1-1 2-2 3 0 1-1 2-1 3 0 1-1 1-1 2 0 0-26-10-28-10-1 0-15-6-15-6l-12-4-4-2-19-8c0 0 0 0-1 0-1-1-1-1-2-1-1-1-1-1-2-1-1-1-2-1-2-1l-13-3c-1 0-1 0-2 0-1-1-1-1-2-1-1-1-2-1-3-1-1-1-1-1-1-1-1 0-1 0-2 0-1 0-2 0-2 0-1 0-2 0-2 0-1 0-2 0-2 0 0 0-1 1-1 1-1 0-2 0-3 1 0 0-1 1-2 1-1 0-1 0-1 1 0 0 0 0-1 1 0 0-1 1-1 1-1 0-1 1-1 1-1 1-1 1-1 1 0 1-1 1-1 1 0 0 0 1-1 1 0 1 0 1 0 2 0 0-1 0-1 0 0 0 0 1 0 1 0 1 0 1 0 2 0 0-1 1-1 1 0 1 0 1 0 2 0 0 0 1 0 1 0 0 0 1 1 2 0 0 0 1 0 1 0 0 0 1 0 1 0 0 1 1 1 1 0 1 0 2 0 2 1 1 1 2 2 3 0 0 1 1 1 1 3 4 7 7 11 11 5 4 9 7 13 10 0 1 0 1 1 1 1 0 1 1 1 1 1 1 1 1 2 1 0 1 0 1 1 1 0 0 2 1 4 3 2 1 4 2 6 4 2 1 4 2 6 3 1 2 3 2 3 3 1 0 1 0 3 1 1 1 3 2 5 2 1 1 3 2 5 4 1 1 3 1 4 2 0 0 1 0 2 1 1 1 2 1 4 2 1 1 2 1 4 2 1 1 2 2 2 2 2 1 4 3 5 6 1 2 1 5 1 9 0 0 0 1-1 2 0 1 0 2 0 3 0 0 0 1 0 2 0 1-1 1-1 1 0 1 0 1 0 2 0 0-1 1-1 1 0 1 0 1 0 1-1 2-1 5-2 7 0 3-1 4-2 6l-1 8c0 1 0 1 0 2 0 1-1 1-1 2 0-1 0-2 0-1-4 1-9 3-12 6-3 3-4 9-3 13 0 3 3 5 4 6 3 3 4 3 6 5 0 1 5 4 6 5 6 4 9 7 9 7l2 2c0 0 0 0 0 1 0 0 0 0 0 0 0 0 0 1 0 1 0 1 0 1 0 1 0 0 0 1 0 1 0 0-1 0-1 0 0 1 0 1-1 2 0 0 0 0 0 1l-6 7c0 0-1 1-2 3-1 1-2 2-3 3-1 1-2 2-3 4-1 0-1 1-1 1-1 2-2 3-4 6-2 2-3 5-5 7-2 2-4 4-5 6-1 2-2 3-2 3 0 0-1 1-1 2-1 1-2 3-3 4 0 1-1 3-2 4-1 2-1 3-1 4l-3 5c0 1 0 1 0 2 0 1 0 2-1 2 0 1 0 2 0 2 0 1-1 1-1 1 0 0 0 0 0 1 0 0 0 1 0 1 0 1 0 1 0 1 0 1 0 1 0 2 0 0 0 1 0 2 0 2 0 2 0 2 0 0 0 1 1 1 0 0 0 1 0 1 1 1 1 1 1 2 0 0 0 0 0 1l1 0c0 1 0 1 0 1 1 0 1 0 2 1 0 0 0 0 1 0 0 0 0 0 1 0 1 0 1 0 2 0 0 0 1 0 2 0 0 0 1 0 1 0 0 0 1 0 2 0 1-1 2-1 3-1 0 0 1-1 1-1 1 0 2 0 3-1 1 0 2 0 2 0 1 0 2 0 2 0l13-5 9-4 3-1c0 0 1 0 1 0 1 0 2 0 2 0 0 0 0 0 0 1 0 1 0 1 0 2 0 1 0 1 0 2 0 0 0 1 0 1 0 0 0 1 0 1 1 0 1 1 1 1 0 1 0 1 0 1 1 1 1 1 1 1 1 1 1 1 1 1 0 1 0 1 0 1 1 0 1 0 1 1 1 0 2 1 2 2 1 0 2 1 2 2 0 0 1 0 1 1l4 2 4 2c1 0 1 1 2 1 1 0 2 0 2 0 0 0 0 0 1 0 0 0 1 0 1 0 1 0 1 0 1 0 1 0 1 0 1 0 0 0 1 0 2 0 0 0 0 0 1 0 0 0 1 0 2 0 1 0 1 0 2 0 0 0 1 0 2 0 0 0 1 0 1 0 0 0 0 0 1 0 0 0 1 0 1 1 0 0 1 1 1 1 1 1 1 1 1 1 1 0 1 0 1 0 1 0 2 0 3 1 1 0 1 0 2 0 0 0 1 0 1 0 1 0 1 0 2 0 1 0 1 0 2 0 0 0 1 0 2-1 0 0 1 0 1 0 0 0 1 0 1 0 1-1 2-1 3-1 0-1 1-1 2-1 1-1 1-1 1-1l23-4c1 0 2-1 4-1 2-1 3-1 6-1 2-1 3-1 5-2 2 0 3-1 4-1 1 0 1 0 1 0 1-1 2-1 3-1 0 0 1 0 2-1 0 0 1 0 1 0 0 0 1-1 1-1 1-1 2-1 3-1 0 0 1-1 2-1 0 0 1 0 1-1 0 0 0 0 1-1 1 0 1-1 2-1 0-1 0-1 0-2 1 0 1 0 1-1 0 0 0 0 0-1 0-1 0-2 0-2 0 0 0-1 0-2 0-1 0-1 0-1 0 0-1-1-1-3 0-1 0-2-1-4 0-2-1-3-1-4-1-2-1-2-1-3 0 0 0 0 0-1 0 0 0-1 0-1 0 0 0 0 0 0 0-1 0-1 0-1 0 0 0-1 1-1 0 0 0 0 1 0l3-2c1 0 1-1 1-2 1 0 1-1 2-1 0 0 0 0 1-1 0-1 0-1 0-2 0 0 0 0 0-1 0-1 0-1 0-2 0 0 0-1 0-1 0-1 0-1 0-2 0 0 0 0 0-1-1 0-1 0-1-1-1 0-1-1-1-1-1-1-1-1-1-1 0 0 0 1 0 2 0 1 0 1 0 2 0 1 0 2 0 3 0 1-1 1-1 2 0 0 0 0-1 1 0 0-1 1-1 1 0 0-1 0-1 0l-1 0c0 0 0 0 0 0 0 0 0 0 0-1 1 0 1-1 1-1 0 0 0-1 0-2 0-1 0-1 0-1 0-1 0-1 0-2 0-1 0-1 0-1 0 0 0-1-1-2 0-1-1-1-1-2 0-1-1-2-1-3-1-1-1-2-2-3l-2-3c0 0 0-1-1-1 0-1 0-1 0-1 0 0 0-1 0-1 1-1 1-1 1-2l0 0c0-1 0-1 0-1 0 0 0-1 0-1 0 0-1 0-1-1-1-1-1-2-1-2-1-1-1-1-2-2 0 0-1-1-1-1 0 0 0 0 0 0l0 0 1-1c0 0 0-1 1-1 0-1 0-1 1-1 0-1 0-1 0-1 0 0 0 0 0-2 0-1 0-1 0-2 0 0 0-1 0-2 0-1 0-2 0-2 0 0 0-1 0-1-1 0-1-1-1-1-1-1-2-3-2-4-1-2-3-3-3-5-1-2-2-3-3-4-1-2-1-2-1-3 0 0-1 0-1 0-1-1-1-1-2-2 0 0 0-1-1-1 0 0-1-1-1-1 0-1 0-2 0-2 0 0 0-1 0-1 0-1 0-1 0-2 0 0 0 0 1-1 0 0 0-1 0-1 0 0 0-1 0-2 0 0 0-1 0-1 0-1 0-1 0-2 0 0 0-1 0-1 0 0-1 0-2-1 0-1-1-1-2-2-1-1-1-2-2-3 0 0-1-1-1-1 0 0 0-1-1-2 0 0 0-1 0-2 0-1-1-2-1-3 0-1 0-1 0-1 0 0 0 0 0 0-1-1-1-1-1-1-1-1-1-1-1-1-1 0-1-1-1-1 0 0 0-1-1-2 0-1-1-2-1-2 0 0 0 1 0 2 0 1 0 2 0 2 0 1 0 2 0 3 0 0 0 1 0 1 0 1 0 1 0 2 0 0 0 1 0 2 0 1 1 1 1 2 0 1 0 1 0 1 0 1 1 1 1 2 0 1 0 1 0 2l2 3 0 3c0 0 0 0 0 1-1 0-1 1-1 2-1 0-1 1-1 2 0 0 0 0 0 1-1-1-1-1-2-2-1-1-1-1-2-2 0 0-1 0-2-1 0 0-1-1-2-2-1 0-2-1-3-1-1-1-2-1-2-2 0 0 0-1 0-1 0-1 0-2 0-2 0-1-1-2-1-3 0-1 0-2-1-4 0-1 0-3 0-4 0-2-1-3-1-3 0-1 0-1-1-2 0-1-1-1-1-2 0 0 0 0-1 0 0-1 0-1 0-2 0 0-1-1-1-1 0 0 0-1 0-1l0 0c-1-1-1-1-1-1 0 0 0 0 0 0l-1 0 0 1c-1 0-1 0-1 0 0 1 0 1 0 2 0 1 0 2 0 3 0 1-1 2-1 2 0 1 0 2 0 2 0 1 0 1 0 2 0 1 0 2 0 3 0 1 0 2 0 3 0 0 0 1 0 1l0 0c-1-1-1-1-1-1l-1-3c0 0 0 0 0-1 0 0-1-1-1-1 0-1 0-1-1-1 0-1 0-1 0-1l-4-6-2-3c0-1 0-1-1-2 0 0 0-1 0-1 0 0 0 0 0-1 0 0-1 0-1-1 0-1 0-2 0-2 0-1 0-1 0-2 0-3 1-6 2-10 1-3 4-6 7-8 1 0 1 0 1-1 1 0 2-1 3-1 1-1 2-1 3-1 0-1 1-1 1-1 0 0 0-1 1-1 1-1 2-1 2-2 0 0 1-1 2-2 0 0 1 0 1-1 0 0 0 0 0-1 1 0 1-1 1-1 1-1 1-1 1-1 1-1 1-1 1-1l3-11 1-4c0 0 0-1 0-2 0 0 1-1 1-1 0-1 0-2 0-2 0-1 0-1 1-2 0 0 0 0 1-1 0 0 1-1 1-1 0 0 1 0 1 1 1 0 1 0 1 1 1 0 1 0 2 0 0 1 1 1 1 1 0 0 0 0 1 0 1 0 1 0 2 0 0 0 1 0 1 0 1 0 1 0 2 0 0 0 0-1 1-1 0 0 1-1 1-1 0-1 1-1 1-2 0-1 1-2 1-3 0-1 1-2 1-3 1-1 1-1 1-2 0 0 0 0 0-1 1-1 1-1 1-1 0-1 0-1 1-2 0 0 0-1 1-1 0-1 1-2 1-2 0-1 0-1 0-1l5-6c0 0 0 0 0-1 1 0 1 0 1-1 1 0 1-1 1-1 0 0 0 0 0 0 0-1 1-1 1-2 1-1 1-1 1-2 0 0 0 0 0-2 0-1 0-2 0-2 0-1 0-1 0-2 0 0 0-1 0-1 0 0 0-1 0-1l0-1c0 0 0 0-1-1 0 0 0-1-1-1-3-2-3-3-4-3z m-16 227c0 0 0 0 0 0 0 0 0 0 0 0 0 0 0 0-1 0-1 0-2 1-2 1 0 0-1 0-2 0 0 0-1 0-1 0 0 0-1 0-2 0-1 0-1 0-1 0 0 0 0 0 0-1 0 0 0 0 0 0 0 0 0-1 1-1 1-1 1-1 2-1 0 0 0 0 1 0 1 0 1 0 2 0 0 0 0 0 1 0 1 0 2 0 2 0 0 0 0 0 0 0 1 1 1 1 1 1-1 1-1 1-1 1z m-12-80l0 3c0-1-1-2-2-2 0-2-1-2-1-3l-4-4c0-1 0-1 0-1 0 0 0 0 0 0 0 0 0 0 0-1 1 0 1 1 1 1 1 1 1 1 2 2 0 0 0 0 1 1 0 0 1 1 1 1 0 0 0 1 0 1 1 1 1 2 2 2z m-73 57c0 0 0 0 0 1 0 1 0 2 0 2-1 0-1 1-1 2-1 0-1 1-1 1 0 0 0 1-1 1 0 1-1 2-1 3-1 0-2 1-2 2 0 1-1 1-1 1 0 0 0 0 0 1-1 0-1 1-1 2-1 0-1 1-1 1 0 1-1 1-1 2l-1 2c0 0 0 0 0 1-1 0-1 0-1 0 0 0 0 0-1 0-1 0-1 1-2 1-1 0-2 0-3 0-1 0-1 0-1 0l-4 0 1-2c3-3 5-5 6-7 2-1 4-3 5-5 2-2 3-3 5-4l3-4c0 0 0 0 1 0 1-1 1-1 2-1 0 0 0 0 1 0l0 0c-1 0-1 0-1 0z"/>
<glyph glyph-name="cross-selling-finnsex" unicode="&#84;" d="M512 256c0-141-115-256-256-256-141 0-256 115-256 256 0 141 115 256 256 256 141 0 256-115 256-256z m-256-55c41-5 81 19 96 60 0 0 0 0 0 1l0 0c0 1 0 1 1 2 0 0 0 1 0 1 4 10 11 28 9 46-2 27-9 43-21 61-8 10-16 19-24 28-3 5-5 9-4 15 0 5 4 9 6 14-11-4-22-10-26-21-4-8-5-16-5-25l0-1c-1-6-1-12-2-18-2-13-17-16-27-9-12 8-4 20 2 29-7 0-13-1-20-3-23-6-43-21-55-43-3-4-5-9-7-14-15-40 0-85 34-108l-41-111c-4-12 2-25 14-29 12-4 25 2 29 13z m-8 46c-25 9-38 37-29 62 9 26 37 38 62 29 26-9 38-37 29-62-9-25-37-38-62-29z"/>
<glyph glyph-name="cross-selling-victoriamilancasino" unicode="&#86;" d="M512 256c0-141-115-256-256-256-141 0-256 115-256 256 0 141 115 256 256 256 141 0 256-115 256-256z m-359-14c-3-7-5-14-7-20 49-18 93-49 127-90 5 5 11 9 16 14-36 43-83 76-136 96z m254-17c3 6 2 13-2 17-7 7-19 5-24-4-1-3-2-7-1-10-20-5-62-14-79 0-16 14-2 57 6 81 6-2 13 0 17 5 5 7 3 16-4 21-7 5-15 3-20-4-4-5-3-12 0-17-19-16-55-43-73-33-19 11-25 53-28 75 5 0 10 3 12 7 3 6 2 13-3 17-7 7-18 5-23-4-3-6-1-13 3-17 2-2 4-3 6-3-13-36-25-71-38-106 28-10 53-23 77-40 23-16 44-36 63-59 29 24 58 48 87 72 0-1 1-2 1-2 7-7 19-5 23 4z"/>
<glyph glyph-name="lock-closed" unicode="&#88;" d="M435 307l-25 0 0 51c0 85-69 154-154 154-85 0-154-69-154-154l0-51-25 0c-14 0-26-11-26-25l0-256c0-15 12-26 26-26l358 0c14 0 26 11 26 26l0 256c0 14-12 25-26 25z m-307 51c0 71 57 128 128 128 71 0 128-57 128-128l0-51-256 0z m307-332l-358 0 0 256 358 0z m-179 179c-21 0-38-17-38-39 0-16 10-30 25-36l0-53 26 0 0 53c15 6 25 20 25 36 0 22-17 39-38 39z m0-51c-7 0-13 5-13 12 0 7 6 13 13 13 7 0 13-6 13-13 0-7-6-12-13-12z"/>
<glyph glyph-name="arrow-left" unicode="&#112;" d="M156 256l231 231c6 6 6 15 0 21-6 5-15 5-20 0l-242-242c-6-5-6-15 0-20l242-242c2-2 6-4 10-4 3 0 7 1 10 4 6 6 6 15 0 21z"/>
<glyph glyph-name="heart" unicode="&#65;" d="M511 352c-7 82-66 142-138 142-49 0-93-26-118-68-25 42-68 68-116 68-72 0-131-60-138-142-1-4-3-23 4-54 11-45 35-86 71-118l178-162 182 162c36 32 60 73 71 118 7 31 5 50 4 54z m-23-49c-10-41-33-79-65-109l-168-150-166 150c-32 30-55 68-65 109-7 29-4 46-4 46l0 1c7 72 57 124 119 124 47 0 87-28 106-74l10-21 9 21c19 45 61 74 109 74 62 0 112-52 119-125 0 0 3-17-4-46z"/>
<glyph glyph-name="heart-full" unicode="&#66;" d="M511 352c-7 82-66 142-138 142-49 0-93-26-118-68-25 42-68 68-116 68-72 0-131-60-138-142-1-4-3-23 4-54 11-45 35-86 71-118l178-162 182 162c36 32 60 73 71 118 7 31 5 50 4 54z"/>
<glyph glyph-name="settings" unicode="&#118;" d="M287 0l-62 0c-12 0-23 9-24 22l-6 38c-12 3-24 8-35 14l-32-23c-3-3-9-5-14-5-7 0-13 3-17 7l-44 44c-9 9-9 22-2 32l23 31c-6 11-11 23-14 35l-39 6c-12 1-21 12-21 24l0 62c0 12 9 23 22 24l38 6c3 12 8 24 14 35l-23 32c-7 9-7 22 2 31l44 44c8 8 23 9 32 2l31-23c11 6 23 11 35 14l6 39c1 12 12 21 24 21l62 0c12 0 23-9 24-22l6-38c12-3 24-8 35-14l32 23c3 3 9 5 14 5 7 0 13-3 17-7l44-44c9-9 9-22 2-32l-23-31c6-11 11-23 14-35l39-6c12-1 21-12 21-24l0-62c0-12-9-23-22-24l-38-6c-3-12-8-24-14-35l23-31c7-10 7-23-2-32l-44-44c-8-8-23-9-32-1l-31 22c-11-6-23-11-35-14l-6-39c-1-12-12-21-24-21z m-127 92c1 0 3 0 4-1 13-7 26-13 41-17 3-1 5-3 6-6l7-44c0-4 3-7 7-7l62 0c4 0 7 3 7 6l7 45c1 3 3 5 6 6 15 4 28 10 41 17 3 2 7 2 9 0l36-26c4-3 8-2 10 0l44 44c2 2 3 6 0 9l-26 37c-2 2-2 6 0 9 7 13 13 26 17 41 1 3 3 5 6 6l44 7c4 0 7 3 7 7l0 62c0 3-3 7-6 7l-45 7c-3 1-5 3-6 6-4 15-10 28-17 41-2 3-2 7 0 9l26 36c3 4 2 8 0 10l-44 44c-2 2-7 3-9 0l-37-26c-2-2-6-2-9 0-13 7-26 13-41 17-3 1-5 3-6 6l-7 44c0 4-3 7-7 7l-62 0c-4 0-7-3-7-6l-7-45c-1-3-3-5-6-6-15-4-28-10-41-17-3-2-7-2-9 0l-36 26c-4 3-8 2-10 0l-44-44c-2-2-3-6 0-9l26-37c2-2 2-6 0-9-7-13-13-26-17-41-1-3-3-5-6-6l-44-7c-4 0-7-3-7-7l0-62c0-4 3-7 6-7l45-7c3-1 5-3 6-6 4-14 10-28 17-41 2-3 2-7 0-9l-26-36c-3-4-3-8 0-10l44-44c2-2 7-3 9 0l37 26c1 1 3 1 5 1z m96 63c-56 0-101 45-101 101 0 56 45 101 101 101 56 0 101-45 101-101 0-56-45-101-101-101z m0 185c-47 0-84-37-84-84 0-47 37-84 84-84 47 0 84 37 84 84 0 47-37 84-84 84z"/>
<glyph glyph-name="report" unicode="&#117;" d="M339 464c-79 0-100 48-201 48-64 0-104-49-104-49l0-447c0-9 7-16 16-16 9 0 16 7 16 16l0 204c16 11 39 20 68 20 101 0 130-48 209-48 80 0 135 48 135 48l0 272c0 0-59-48-139-48z m107-207c-18-12-56-33-103-33-31 0-52 9-79 20-33 13-70 28-130 28-27 0-50-7-68-16l0 194c12 11 38 30 72 30 47 0 73-11 101-23 28-12 56-25 100-25 43 0 80 12 107 25z"/>
<glyph glyph-name="security-checked" unicode="&#80;" d="M260 23c0 0-1 0-2 1-2 1-4 2-6 3-7 4-15 9-24 15-24 17-49 39-72 66-65 78-105 181-105 314l-8-10c37 8 69 18 98 30 14 6 26 11 40 18 5 3 10 5 16 8 2 1 7 4 7 4 3 2 5 3 7 4 21 11 32 15 42 15 1 0 2 1 3 1 1 0 2-1 3-1 10 0 21-4 42-15 2-1 4-2 7-4 0 0 5-3 7-4 6-3 11-5 16-8 14-7 26-12 40-18 29-12 61-22 98-30l-8 10c0-129-40-231-105-310-23-28-48-50-72-69-9-6-17-11-24-16-3-1-5-2-7-3-1-1-1-1-2-1z m-8-19l4-2 5 2c2 1 5 3 10 6 7 5 16 10 25 17 26 19 51 43 75 72 69 83 110 189 110 323l0 8-8 2c-35 7-66 17-95 29-13 5-25 11-38 17-4 3-9 5-15 9-2 0-8 3-8 3-3 2-5 3-7 4-23 12-36 17-50 18-1 0-3 0-4 0-1 0-3 0-4 0-14-1-27-6-50-18-2-1-4-2-7-4 0 0-6-3-8-3-6-4-11-6-15-9-13-6-25-12-38-17-29-12-60-22-95-29l-8-2 0-8c0-138 41-246 110-327 24-28 50-52 76-70 9-6 17-11 25-16 4-2 8-4 10-5z m-75 255l64-58 9-8 7 10 90 140 5 8-17 11-6-8-90-140 16 2-64 58-7 7-14-15z"/>
<glyph glyph-name="shake-phone" unicode="&#81;" d="M295 492c-2 0-5 0-8-2l-181-51c-20-6-31-26-26-47l85-298 12-45c5-16 21-27 37-27 3 0 7 0 10 1l180 51c21 5 32 26 27 47l-96 343c-5 18-22 29-40 28z m0-21c1 0 2 0 3 0 8 0 15-5 17-13l82-288-216-61-82 287c-2 11 3 21 14 23l180 51c0 1 1 1 2 1z m96-69c-5-1-9-6-8-12 0 0 0-1 0-1l51-180c1-5 7-8 12-7 6 1 9 7 8 12l-52 180c0 5-5 9-11 8 1 0 0 0 0 0z m58-31c-6-1-10-6-9-13 0 0 0-1 0-1l26-91c1-5 7-8 12-7 5 1 8 7 7 12l-24 93c-2 4-6 8-12 7 1 0 0 0 0 0z m-383-61c-6-1-10-6-9-12 0 0 0-1 0-1l52-180c1-5 7-8 12-7 5 1 8 7 7 12l-51 180c-1 5-5 9-11 8 1 0 0 0 0 0z m-32-57c-5-1-9-6-8-12 0 0 0-1 0-1l25-92c1-5 7-8 12-7 6 1 9 7 8 13l-25 92c-2 4-6 8-12 7 1 0 0 0 0 0z m267-147c6 0 13-3 14-9 2-7-2-15-9-17-7-2-15 2-17 9-2 7 2 15 9 17 1 0 2 0 3 0z"/>
<glyph glyph-name="windows-live" unicode="&#87;" d="M213 245l-149 0 0-129 149-20z m0 170l-149-21 0-127 149 0z m22 3l0-151 213 0 0 181z m0-173l0-152 213-29 0 181z"/>
<glyph glyph-name="google-plus" unicode="&#89;" d="M424 344l35 0 0-141-35 0z m-53-53l141 0 0-35-141 0z m-56-3l-1 3-155 0 0-53 104 0c-8-50-52-88-104-88-59 0-106 47-106 106 0 59 47 106 106 106 26 0 51-10 69-26l38 37c-28 26-66 42-107 42-88 0-159-71-159-159 0-88 71-159 159-159 88 0 159 71 159 159 0 11-1 22-3 32z"/>
<glyph glyph-name="info-circle" unicode="&#90;" d="M256 0c-141 0-256 115-256 256 0 141 115 256 256 256 141 0 256-115 256-256 0-141-115-256-256-256z m0 492c-130 0-236-106-236-236 0-130 106-236 236-236 130 0 236 106 236 236 0 130-106 236-236 236z m25-107c0-13-10-24-26-24-14 0-24 11-24 24 0 14 11 25 25 25 15 0 25-11 25-25z m-45-283l0 221 40 0 0-221c0 0-40 0-40 0z"/>
<glyph glyph-name="yahoo" unicode="&#48;" d="M282 239l4-202c-12 2-22 3-30 3-8 0-18-1-30-3l3 202c-7 13-23 41-48 84-24 43-45 79-62 107-16 28-34 56-51 82 11-3 21-4 31-4 8 0 18 1 31 4 12-21 25-43 38-66 14-22 30-48 48-79 19-30 32-51 40-64 7 11 17 28 31 50 14 22 25 41 34 55 8 14 18 30 30 50 11 19 21 37 30 54 10-3 21-4 31-4 10 0 21 1 32 4-5-7-11-16-17-25-6-10-11-17-14-23-3-5-9-14-16-27-8-13-12-21-14-24-28-47-62-105-101-174z"/>
<glyph glyph-name="bullhorn" unicode="&#49;" d="M475 329c11 0 19-3 26-11 7-7 11-15 11-25 0-11-4-19-11-26-7-7-15-11-26-11l0-110c0-10-3-18-10-25-8-8-16-11-26-11-80 66-157 102-232 108-11-3-20-10-26-19-6-9-9-18-9-28 0-10 4-19 11-27-3-6-6-12-6-18-1-7 0-12 2-17 1-5 4-10 9-16 5-5 9-10 14-14 4-4 10-9 17-14-5-11-16-19-31-24-16-5-32-6-49-3-16 2-29 7-37 15-2 5-4 13-9 25-4 13-7 22-9 27-2 6-4 15-6 26-3 11-4 21-5 29 0 8 0 17 1 28 1 11 3 21 7 31l-35 0c-13 0-24 5-33 14-9 9-13 20-13 32l0 55c0 13 4 23 13 32 9 9 20 14 33 14l137 0c83 0 168 36 256 109 10 0 18-3 26-10 7-8 10-16 10-26z m-36-172l0 272c-75-57-148-90-220-98l0-77c72-8 145-40 220-97z"/>
<glyph glyph-name="pencil" unicode="&#50;" d="M512 452c0 16-6 31-17 42-12 12-27 18-43 18-16 0-31-6-42-18l-12-12-36-36-323-323c-1-1-2-2-2-3l-37-109c-1-3 0-6 3-9 1-1 3-2 6-2 0 0 1 0 2 0l109 37c1 0 2 1 3 2l323 323 36 36 13 12c11 11 17 26 17 42z m-66-66l-60 60 12 12 60-60z m-398-285l53-53-79-26z m69-44l-60 60 317 317 60-60z m353 353l-60 60 12 12c8 8 19 13 30 13 12 0 22-5 30-13 9-8 13-18 13-30 0-11-5-22-13-30z"/>
<glyph glyph-name="trash" unicode="&#51;" d="M424 452l-69 0 0 44c0 9-7 16-16 16-1 0-1 0-2-1 0 1-1 1-1 1l-163 0c-9 0-16-7-16-16l0-44-68 0c-20 0-35-16-35-35l0-57 30 0 0-326c0-19 15-34 35-34l275 0c19 0 34 15 34 34l0 326 31 0 0 57c0 19-16 35-35 35z m-235 28l134 0 0-28-134 0z m207-446c0-2 0-2-2-2l-275 0c-2 0-3 0-3 2l0 326 280 0z m30 357l-340 0 0 26c0 2 1 3 3 3l335 0c2 0 2-1 2-3z m-112-69l32 0 0-262-32 0z m-74 0l32 0 0-262-32 0z m-74 0l33 0 0-262-33 0z"/>
<glyph glyph-name="pencil-full" unicode="&#52;" d="M45 129l317 317 84-84-317-317z m437 269l13 12c11 11 17 26 17 42 0 16-6 31-17 42-12 12-27 18-43 18-16 0-31-6-42-18l-12-12z m-447-283l-35-104c-1-3 0-6 3-9 1-1 3-2 6-2 0 0 1 0 2 0l104 35z m339 343l12 12 84-84-12-12z"/>
<glyph glyph-name="pencil-blue" unicode="&#53;" d="M477 477c-10 10-23 15-35 15-13 0-26-5-36-15 0 0 0-1-1-2 0 0 0 0 0 0l-361-360c-1-2-2-3-3-5l-20-77c-1-3 0-7 2-10 2-1 5-3 8-3 1 0 1 1 2 1l77 20c2 1 3 2 5 3l360 360c0 1 0 1 0 1 1 1 2 1 2 1 19 20 19 51 0 71z m-15-15c12-11 12-30 0-41-3-3-6-6-8-9l-42 42c5 4 9 8 9 8 5 6 13 9 21 9 8 0 15-3 20-9z m-405-371l34-34-46-12z"/>
<glyph glyph-name="close-red" unicode="&#54;" d="M256 492c-130 0-236-106-236-236 0-130 106-236 236-236 130 0 236 106 236 236 0 130-106 236-236 236z m0-21c119 0 215-96 215-215 0-119-96-215-215-215-119 0-215 96-215 215 0 119 96 215 215 215z m-79-112l68-101-68-102 30 0 53 79 2 0 52-79 33 0-69 101 70 102-31 0-53-79-2 0-51 79z"/>
<glyph glyph-name="menu" unicode="&#55;" d="M0 420l0-21 512 0 0 21z m0-154l0-20 512 0 0 20z m0-153l0-21 512 0 0 21z"/>
<glyph glyph-name="new" unicode="&#56;" d="M203 510c-3 1-6 0-9-1-5-1-10-5-14-9l0 0 0-1-29-38-51-1 0 0-1 0c-11-2-21-10-23-22l-8-48-42-25-1 0 0 0c-9-6-15-18-11-30l0 0 16-47-26-42 0 0c-7-10-5-23 3-32l0 0 36-34-4-50 0-1c0-11 6-23 19-26l47-14 20-46 0 0c5-11 17-18 29-15l0 0 0 0 48 10 37-31 1 0c5-4 11-5 16-5 6 0 12 2 16 5l1 0 37 31 48-10 1 0c11-2 23 4 28 15l20 46 46 13c12 3 20 14 19 27l0 0 0 1-4 48 35 34 1 1-1 0c9 8 11 22 4 32l1 0-27 42 16 46 0 1 0 0c4 12-1 24-11 30l0 0-1 0-42 24-8 49c-2 12-11 22-24 22l0 0-49 1-29 40 0 0-1 0c-7 9-20 13-31 8 0 0 0 0-1 0l-44-21-44 21 0 0 0 0c-3 1-6 2-9 2z m-3-20c1 0 2 0 4-1l48-23 4-2 4 2 49 24 1 0c1 0 4 0 6-3 1 0 1 0 1 0l31-43 3-3 5-1 54-2 1 0c1 0 3-2 4-4l8-54 1-5 4-2 47-26c2-2 3-4 2-7l-17-51-1-5 2-4 29-46 0 0 1-1c2-2 2-3-1-5l0 0 0 0-39-38-4-4 0-5 5-54 0 0 0-1c0-1-2-4-4-4l-52-15-4-1-2-5-22-50c-1-3-3-3-6-3l0 0-53 11-4 1-4-3-41-33c-1-1-2-2-4-2-1 0-4 1-4 2l-41 33-4 3-4-1-54-11 0 0 0 0c-2-1-4 0-5 3l-22 50-2 5-4 1-53 16c-2 0-3 3-3 6l3 53 1 5-4 4-39 37c-1 2-2 5 0 7l0 0 0 0 29 46 2 4-1 5-18 51 0 0c0 3 1 5 3 7l47 26 4 3 1 4 8 54 0 0c0 2 3 4 6 4l54 1 5 0 3 4 32 43 1 1 0 0c0 1 1 2 3 2z m-87-187l0-94 15 0 0 69 43-69 17 0 0 94-15 0 0-69-43 69z m103 0l0-94 69 0 0 14-53 0 0 28 49 0 0 13-49 0 0 25 52 0 0 14z m80 0l25-94 17 0 20 72 20-72 16 0 26 94-17 0-18-73-18 73-18 0-19-73-18 73z"/>
<glyph glyph-name="sex-any" unicode="&#57;" d="M0 512l0-124 20 0 0 89 80-80-30-31 14-14 31 30 47-47c-18-21-29-49-29-79 0-64 50-117 113-122l0-99-58 58-15-14 76-76c2-2 4-3 7-3 3 0 5 1 7 3l76 76-15 14-58-58 0 99c63 5 113 58 113 122 0 30-11 58-29 79l90 91 50-50 14 15-49 49 54 54-15 15-54-54-49 49-15-14 50-50-91-90c-21 18-49 29-79 29-30 0-58-11-79-29l-47 47 30 31-14 14-31-30-80 80 89 0 0 20z m256-154c57 0 102-45 102-102 0-57-45-102-102-102-57 0-102 45-102 102 0 57 45 102 102 102z"/>
<glyph glyph-name="online" unicode="&#33;" d="M429 440c0 0 0 0-1 0-4-1-7-4-8-8-1-3 0-7 3-10 42-42 69-101 69-166 0-65-27-123-69-166-3-3-4-7-4-10 1-4 4-7 8-8 4-1 8 0 10 4 46 46 75 110 75 180 0 70-28 134-74 180-2 3-5 4-9 4z m-348 0c-3-1-5-2-6-4-46-46-75-110-75-180 0-70 28-134 74-180 4-5 11-5 15-1 4 4 4 11 0 15-42 42-69 101-69 166 0 65 27 123 69 166 3 3 4 8 2 12-2 4-6 6-10 6z m85-75c-3 0-5-1-6-3-29-26-47-64-47-106 0-42 18-80 47-106 2-3 6-4 10-3 4 1 7 4 7 8 1 4 0 7-4 10-24 22-40 55-40 91 0 36 16 69 40 91 4 3 5 8 3 12-2 4-6 7-10 6z m178 0c-4 0-7-3-9-7-1-4 0-8 4-11 24-22 40-55 40-91 0-36-16-69-40-91-4-3-5-6-4-10 0-4 3-7 7-8 4-1 8 0 10 3 29 26 47 64 47 106 0 42-18 80-47 106-2 2-4 3-7 3 0 0-1 0-1 0z m-88-58c-28 0-51-23-51-51 0-28 23-51 51-51 28 0 51 23 51 51 0 28-23 51-51 51z m0-20c17 0 31-14 31-31 0-17-14-31-31-31-17 0-31 14-31 31 0 17 14 31 31 31z"/>
<glyph glyph-name="sex-male" unicode="&#34;" d="M287 461l0-21 139 0-138-137c-25 22-58 35-93 35-79 0-144-64-144-143 0-79 65-144 144-144 79 0 143 65 143 144 0 35-13 68-35 93l137 138 0-139 21 0 0 174z m-92-144c33 0 63-12 85-33 0-1 0-1 0-1 1-1 2-2 3-3 21-22 34-52 34-85 0-68-54-123-122-123-68 0-123 55-123 123 0 68 55 122 123 122z"/>
<glyph glyph-name="sex-female" unicode="&#35;" d="M256 492c-79 0-143-65-143-144 0-75 58-138 133-143l0-72-82 0 0-20 82 0 0-82 20 0 0 82 82 0 0 20-82 0 0 72c75 5 133 68 133 143 0 79-64 144-143 144z m0-21c68 0 123-55 123-123 0-68-55-123-123-123-68 0-123 55-123 123 0 68 55 123 123 123z"/>
<glyph glyph-name="smile" unicode="&#36;" d="M256 502c-136 0-246-110-246-246 0-136 110-246 246-246 136 0 246 110 246 246 0 136-110 246-246 246z m0-21c125 0 225-100 225-225 0-125-100-225-225-225-125 0-225 100-225 225 0 125 100 225 225 225z m-82-164c-17 0-31-13-31-30 0-17 14-31 31-31 17 0 31 14 31 31 0 17-14 30-31 30z m164 0c-17 0-31-13-31-30 0-17 14-31 31-31 17 0 31 14 31 31 0 17-14 30-31 30z m-217-112c-3-1-6-3-8-6-1-4-1-8 2-11 0 0 53-75 141-75 88 0 141 75 141 75 4 5 3 12-2 15-4 3-11 2-14-2 0 0-49-68-125-68-76 0-125 68-125 68-2 3-6 4-10 4z"/>
<glyph glyph-name="fire" unicode="&#37;" d="M223 512c-5-1-8-5-9-9-6-71-47-118-89-167-42-49-84-99-84-176 0-52 23-92 54-119 31-27 68-41 100-41 3 0 7 2 9 5 1 3 1 7 0 10-2 4-6 6-9 5-25 0-60 12-87 36-26 24-47 58-47 104 0 69 38 114 80 163 38 45 79 93 90 161 155-109 220-219 220-302 0-79-49-143-96-162-6-2-8-8-6-14 2-5 8-7 13-5 58 23 109 94 109 181 0 96-73 214-241 328-2 1-4 2-6 2-1 0-1 0-1 0z m39-158c-3 0-5-2-7-4-2-2-2-5-2-8 6-36 8-65 6-88-2-22-8-37-14-43-5-7-10-8-19-4-9 4-21 15-34 34-1 3-5 4-8 5-3 0-6-2-8-4-39-52-37-93-23-120 13-26 37-39 37-39 3-2 7-2 11 0 3 2 5 5 5 9 0 4-3 8-7 9 0 0-18 10-28 30-9 19-12 46 14 87 11-14 22-25 33-30 15-7 32-3 43 9 10 12 16 31 18 56 2 17 1 38-2 62 28-28 50-57 59-89 12-40 6-83-27-128-3-4-2-11 2-14 5-4 11-3 15 2 36 49 43 100 30 145-13 46-45 87-86 121-2 2-5 3-8 2z"/>
<glyph glyph-name="long-arrow-right-filled" unicode="&#38;" d="M379 379c-8 0-16-4-19-12-3-8-2-16 4-23l63-68-396 0c-8 1-15-3-18-10-4-6-4-14 0-20 3-7 10-11 18-10l396 0-63-69c-5-5-7-13-5-20 2-7 8-12 15-14 7-1 15 1 20 7l108 116-108 116c-4 4-9 7-15 7z"/>
<glyph glyph-name="security" unicode="&#39;" d="M256 512c-25 0-46-14-78-30-31-16-73-36-139-50l-8-2 0-8c0-157 55-262 110-327 55-65 111-91 111-91l4-2 5 2c0 0 220 114 220 418l0 8-8 2c-66 14-108 34-139 50-32 16-53 30-78 30z m0-20c17 0 36-12 68-28 31-16 74-35 136-50-4-278-191-382-204-389-7 3-51 26-100 83-51 61-102 159-104 306 62 15 105 34 136 50 32 16 51 28 68 28z"/>
<glyph glyph-name="long-arrow-left-filled" unicode="&#40;" d="M134 379c-6 0-12-2-16-7l-107-116 107-116c5-6 13-8 20-7 7 2 13 7 15 14 2 7 0 15-5 20l-63 69 396 0c8-1 15 3 18 10 4 6 4 14 0 20-3 7-10 11-18 10l-396 0 63 68c6 6 7 15 4 22-3 8-10 13-18 13z"/>
<glyph glyph-name="upload" unicode="&#41;" d="M169 408c2 0 4 1 6 2l72 72 0-308c0-5 4-9 9-9 5 0 9 4 9 9l0 308 71-71c4-4 9-4 13 0 3 3 3 8 0 12l-87 86c-1 1-2 2-3 2-2 1-4 1-6 0-1 0-2-1-3-2l-87-86c-3-4-3-9 0-13 2-1 4-2 6-2z m148-35c-5 0-9-4-9-9 0-4 4-8 9-8l113 0 0-339-348 0 0 339 113 0c5 0 9 4 9 8 0 5-4 9-9 9l-130 0 0-373 382 0 0 373z"/>
<glyph glyph-name="photo-add" unicode="&#42;" d="M77 442c-3 0-5-2-6-4-1-2-1-4 0-6 1-2 3-3 6-3l0-13-13 0c-18 0-32-14-32-32l0-269c0-17 14-32 32-32l245 0c9-47 51-83 101-83 56 0 102 46 102 102 0 30-12 56-32 75l0 207c0 18-14 32-32 32l-224 0 0 13c2 0 4 1 6 3 1 2 1 4 0 6-2 2-4 4-6 4l-70 0c-3 0-5-2-6-4-1-2-1-4 0-6 1-2 3-3 6-3l0-13-32 0 0 13c2 0 4 1 5 3 1 2 1 4 0 6-1 2-3 4-5 4z m13-13l19 0 0-13-19 0z m76 0l45 0 0-13-45 0z m-102-26l384 0c11 0 19-8 19-19l0-197c-16 11-36 18-57 18-7 0-14-1-21-2 9 16 14 34 14 53 0 60-49 109-109 109-60 0-108-49-108-109 0-60 48-109 108-109 9 0 17 1 25 3-7-14-12-30-12-48 0-2 0-4 1-6l-244 0c-11 0-19 9-19 19l0 269c0 11 8 19 19 19z m326-25l0-20 58 0 0 20z m-96-26c54 0 96-43 96-96 0-22-7-43-20-59-16-7-29-17-40-30-11-4-23-7-36-7-53 0-96 43-96 96 0 53 43 96 96 96z m-230-19c-4 0-6-3-6-7 0-3 2-6 6-6 4 0 6 3 6 6 0 4-2 7-6 7z m26 0c-4 0-7-3-7-7 0-3 3-6 7-6 3 0 6 3 6 6 0 4-3 7-6 7z m25 0c-3 0-6-3-6-7 0-3 3-6 6-6 4 0 7 3 7 6 0 4-3 7-7 7z m26 0c-4 0-7-3-7-7 0-3 3-6 7-6 3 0 6 3 6 6 0 4-3 7-6 7z m25 0c-3 0-6-3-6-7 0-3 3-6 6-6 4 0 7 3 7 6 0 4-3 7-7 7z m26 0c-4 0-6-3-6-7 0-3 2-6 6-6 4 0 6 3 6 6 0 4-2 7-6 7z m102 0c-42 0-76-35-76-77 0-42 34-77 76-77 43 0 77 35 77 77 0 42-34 77-77 77z m103 0c-4 0-7-3-7-7 0-3 3-6 7-6 3 0 6 3 6 6 0 4-3 7-6 7z m25 0c-3 0-6-3-6-7 0-3 3-6 6-6 4 0 7 3 7 6 0 4-3 7-7 7z m26 0c-4 0-6-3-6-7 0-3 2-6 6-6 4 0 6 3 6 6 0 4-2 7-6 7z m-154-13c36 0 64-29 64-64 0-35-28-64-64-64-35 0-64 29-64 64 0 35 29 64 64 64z m-134-51c-7 0-13-6-13-13 0-7 6-13 13-13 7 0 13 6 13 13 0 7-6 13-13 13z m250-77c49 0 89-40 89-90 0-49-40-89-89-89-50 0-90 40-90 89 0 50 40 90 90 90z m-7-45l0-38-38 0 0-13 38 0 0-38 13 0 0 38 38 0 0 13-38 0 0 38z m-339-19c-4 0-6-3-6-6 0-4 2-7 6-7 4 0 6 3 6 7 0 3-2 6-6 6z m26 0c-4 0-7-3-7-6 0-4 3-7 7-7 3 0 6 3 6 7 0 3-3 6-6 6z m25 0c-3 0-6-3-6-6 0-4 3-7 6-7 4 0 7 3 7 7 0 3-3 6-7 6z m26 0c-4 0-7-3-7-6 0-4 3-7 7-7 3 0 6 3 6 7 0 3-3 6-6 6z m25 0c-3 0-6-3-6-6 0-4 3-7 6-7 4 0 7 3 7 7 0 3-3 6-7 6z m26 0c-4 0-6-3-6-6 0-4 2-7 6-7 4 0 6 3 6 7 0 3-2 6-6 6z m26 0c-4 0-7-3-7-6 0-4 3-7 7-7 3 0 6 3 6 7 0 3-3 6-6 6z m25 0c-3 0-6-3-6-6 0-4 3-7 6-7 4 0 7 3 7 7 0 3-3 6-7 6z m26 0c-4 0-7-3-7-6 0-4 3-7 7-7 3 0 6 3 6 7 0 3-3 6-6 6z m25 0c-3 0-6-3-6-6 0-4 3-7 6-7 4 0 7 3 7 7 0 3-3 6-7 6z"/>
<glyph glyph-name="cross-selling-richmeetbeautiful" unicode="&#43;" d="M512 256c0-141-115-256-256-256-141 0-256 115-256 256 0 141 115 256 256 256 141 0 256-115 256-256z"/>
<glyph glyph-name="checkmark-filled" unicode="&#44;" d="M256 481c-124 0-225-101-225-225 0-124 101-225 225-225 124 0 225 101 225 225 0 124-101 225-225 225z m-15-323l-93 84 13 15 76-67 112 174 17-11z"/>
<glyph glyph-name="add-filled" unicode="&#45;" d="M256 481c-124 0-225-101-225-225 0-124 101-225 225-225 124 0 225 101 225 225 0 124-101 225-225 225z m61-235l-51 0 0-51c0-6-4-11-10-11-6 0-10 5-10 11l0 51-51 0c-6 0-11 4-11 10 0 6 5 10 11 10l51 0 0 51c0 6 4 11 10 11 6 0 10-5 10-11l0-51 51 0c6 0 11-4 11-10 0-6-5-10-11-10z"/>
<glyph glyph-name="chat-1" unicode="&#46;" d="M302 184c31 13 55 31 73 54 18 22 27 47 27 73 0 26-9 51-27 73-18 23-42 41-73 54-31 13-65 19-101 19-36 0-70-6-101-19-31-13-55-31-73-54-18-22-27-47-27-73 0-23 7-44 20-64 14-20 32-37 56-50-2-5-4-9-6-13-2-4-4-8-7-11-3-4-5-6-6-8-2-2-4-5-8-9-3-3-6-6-6-7 0 0-1 0-2-1 0-1-1-2-1-2 0 1 0 0-1-1-1-1-1-2-1-2l-1-1c0-1 0-1 0-2 0 0 0-1 0-2 0 0 0-1 0-1 0-3 1-5 3-6 2-2 4-3 6-3l1 0c9 2 18 3 24 5 30 7 56 20 80 36 17-3 34-4 50-4 36 0 70 6 101 19z m189-10c14 20 21 41 21 64 0 23-8 45-22 66-14 20-33 37-58 50 4-14 7-28 7-43 0-25-7-50-20-72-12-23-31-44-54-61-22-16-48-28-76-37-28-8-57-13-88-13-6 0-14 1-25 1 38-25 83-37 135-37 16 0 33 1 50 4 23-16 50-29 79-36 7-2 15-3 25-5 2 0 4 1 6 2 2 2 3 4 4 6 0 2 0 2 0 2 0 0 0 1 0 2 0 1-1 2-1 2l0 1c-1 1-1 1-1 2-1 1-1 1-1 1-1 1-1 1-2 2 0 0-1 1-1 1-1 1-3 4-6 7-4 4-6 7-8 9-1 2-4 4-6 8-3 3-5 7-7 11-2 4-4 8-6 12 23 14 42 31 55 51z"/>
<glyph glyph-name="users" unicode="&#58;" d="M103 306c0 46 37 83 83 83 45 0 82-37 82-83 0-45-37-82-82-82-46 0-83 37-83 82z m118-88l-71 0c-58 0-105-47-105-106l0-86 0-1 6-2c55-17 104-23 144-23 77 0 122 22 125 24l6 2 0 0 0 86c0 59-47 106-105 106z m105 129c46 0 83 37 83 82 0 46-37 83-83 83-45 0-82-37-82-83 0-45 37-82 82-82z m35-6l-70 0c-1 0-3 0-5 0 7-13 10-28 10-44 0-29-12-55-31-74 45-13 80-52 88-99 67 2 106 21 108 23l6 3 0 0 0 85c0 59-47 106-106 106z"/>
<glyph glyph-name="puzzle" unicode="&#47;" d="M272 502c-40 0-73-32-73-72 0-18 7-31 17-47 9-12 9-19 8-21-1-2-5-4-14-4-25 2-105 11-105 11l0 0c-10 1-19-3-24-10-5-6-7-14-8-22 0 0 0-1 0-1 0 0 0 0 0 0l0 0c0-1-4-21-11-105 0-2 0-1 0-2l0 0c0-4 0-7 0-8 1-6 5-13 11-16 6-3 12-2 17-1 11 4 21 11 31 18 12 8 23 14 36 14 29 0 53-23 53-52 0-28-24-51-53-51-15 0-23 4-37 15-8 6-17 13-27 16-4 2-10 3-16 2-5-2-11-6-14-12-2-7-2-11-1-16 0-1 0 0 0-1 6-62 9-69 11-78 1-6 4-13 9-19 5-5 13-9 22-9l328 0c11 0 22 3 29 11 7 7 10 17 10 27l0 265c0 10-4 18-9 24-6 6-13 9-19 11-2 0-3 0-4 0 0 0-77-7-105-11-8-1-11 1-12 4-2 3-2 10 5 22 6 9 10 16 13 23 4 7 5 14 5 23 0 40-33 72-73 72z m0-21c29 0 52-23 52-51 0-7 0-11-2-15-2-5-6-11-12-20-10-15-13-30-7-42 6-12 19-17 33-15 26 3 98 10 102 10 4-1 8-2 9-4 2-2 4-4 4-10l0-265c0-6-2-10-5-13-3-3-7-5-14-5l-328 0c-3 0-4 1-6 3-2 2-4 6-5 10-3 11-5 12-11 76 0 0 0 0 0 0 0 2 1 7 0 6 1 0 2 0 4-1 6-2 14-8 21-13 16-13 31-19 50-19 40 0 73 32 73 71 0 40-33 72-73 72-19 0-35-8-48-18-10-7-19-12-25-14 0 0-1 0-1 0 0 0-1 0-1 1 0 1 0 1 0 1 0 1 0 1 0 2 7 88 11 104 11 104 0 1 0 1 0 1 1 7 2 12 4 14 1 2 1 2 5 2 0 0 1 0 1 0 0 0 78-9 105-11 14-1 28 3 34 15 6 12 2 27-9 42-10 14-14 22-14 35 0 28 24 51 53 51z"/>
<glyph glyph-name="drag-handle" unicode="&#59;" d="M211 456c0-30-24-55-55-55-31 0-56 25-56 55 0 31 25 56 56 56 31 0 55-25 55-56z m201 0c0-30-25-55-56-55-31 0-55 25-55 55 0 31 24 56 55 56 31 0 56-25 56-56z m0-200c0-31-25-56-56-56-31 0-55 25-55 56 0 31 24 56 55 56 31 0 56-25 56-56z m-201 0c0-31-24-56-55-56-31 0-56 25-56 56 0 31 25 56 56 56 31 0 55-25 55-56z m0-200c0-31-24-56-55-56-31 0-56 25-56 56 0 30 25 55 56 55 31 0 55-25 55-55z m201 0c0-31-25-56-56-56-31 0-55 25-55 56 0 30 24 55 55 55 31 0 56-25 56-55z"/>
<glyph glyph-name="filter-appearance" unicode="&#60;" d="M368 326l0 23c0 11-7 20-17 23-51 12-78 58-79 58-8 15-32 15-40 0 0 0-28-46-79-58-10-3-17-12-17-23l0-23-45 0c11 79 79 139 161 139 82 0 150-60 161-139z m-46 0c0-39-31-70-70-70-38 0-70 31-70 70l0 6c32 12 55 32 70 49 15-17 38-37 70-49z m-70 186c-115 0-209-94-209-209l0-24 103 0c18-41 59-70 106-70 48 0 89 29 107 70l103 0 0 24c0 115-94 209-210 209z m-140-465c0 33 22 62 61 78l79-61 79 61c39-16 61-45 61-78z m222 126l-11 4-71-54-70 54-12-4c-65-22-104-69-104-126l0-47 372 0 0 47c0 57-39 104-104 126z"/>
<glyph glyph-name="filter-background" unicode="&#61;" d="M275 275c-2 22-2 44 2 65l63-63c-21-4-43-4-65-2z m-189-75c12 8 26 15 39 21l96-96c-6-13-13-27-21-39z m151 37c2-22 2-44-2-65l-63 63c21 4 43 4 65 2z m189 75c-12-8-26-15-39-21l-96 96c6 13 13 27 21 39z m49 42l-14-13c0-1-1-1-1-2l-121 121c1 0 1 1 2 1l13 14-30 30-14-14c-56-56-84-133-78-211-78 6-155-22-211-78l-14-14 30-30 14 13c0 1 1 1 1 2l121-121c-1 0-1-1-2-1l-13-14 30-30 14 14c56 56 84 133 78 211 78-6 155 22 211 78l14 14z"/>
<glyph glyph-name="filter-sex-drive" unicode="&#62;" d="M280 486c-17 0-31-14-31-31 0 17-14 31-31 31-17 0-31-14-31-31 0-31 62-93 62-93 0 0 63 62 63 93 0 17-14 31-32 31m115-124c-12 0-21 9-21 21 0 11 9 20 21 20 11 0 21-9 21-20 0-12-10-21-21-21m62 21c0 34-28 62-62 62-35 0-63-28-63-62 0-35 28-63 63-63 34 0 62 28 62 63m0-208l-21 0c-11 0-20-10-20-21l0-83-42 0 0 83c0 11-9 21-21 21l-21 0 0 41c0 35 28 63 63 63 34 0 62-28 62-63z m-62 145c-58 0-104-46-104-104l0-62c0-12 9-21 21-21l20 0 0-83c0-11 10-21 21-21l83 0c12 0 21 10 21 21l0 83 21 0c11 0 21 9 21 21l0 62c0 58-47 104-104 104z m-291 21c-12 0-21 9-21 21 0 11 9 21 21 21 11 0 21-10 21-21 0-12-10-21-21-21m62 21c0 34-28 62-62 62-34 0-62-28-62-62 0-35 28-63 62-63 34 0 62 28 62 63m-21-229c-15 0-16 0-36-62l-11 0c-19 60-20 62-34 62-2 0-12 0-17 0 0 0 14 53 26 100 3 14 16 25 31 25 15 0 28-11 31-26 12-44 25-99 25-99-4 0-13 0-15 0m31 108c-7 34-37 58-72 58-35 0-65-24-72-57-13-50-7-28-31-125-2-6-1-12 3-17 4-5 10-8 16-8 0 0 16-1 28-1 4-12 10-30 15-47 3-9 11-15 20-15l42 0c9 0 17 6 19 15 6 17 12 35 16 47 12 0 27 1 27 1 7 0 13 3 17 8 3 5 5 11 3 17-23 94-19 79-31 124"/>
<glyph glyph-name="filter-lifestyle" unicode="&#63;" d="M390 360c-4 0-8 0-12 1l5 6c7 7 9 17 5 26-4 9-12 15-22 15l-25 0c0 27 22 49 49 49 27 0 49-22 49-49 0-27-22-48-49-48z m-84 0l-111-112-112 112z m84 146c-54 0-97-44-97-98l-137 0-73 74-83 0 0-49 63 0 24-25-63 0c-9 0-18-6-22-15-4-9-2-19 5-26l164-164 0-136-73 0 0-49 195 0 0 49-74 0 0 136 122 122c14-9 31-14 49-14 54 0 98 44 98 97 0 54-44 98-98 98z"/>
<glyph glyph-name="filter-menu" unicode="&#64;" d="M435 445c14 0 26-12 26-26 0-14-12-25-26-25-14 0-25 11-25 25 0 14 11 26 25 26m0-103c43 0 77 35 77 77 0 43-34 77-77 77-33 0-61-21-72-51l-363 0 0-51 363 0c11-30 39-52 72-52m-256-102c-14 0-25 11-25 26 0 14 11 25 25 25 14 0 26-11 26-25 0-15-12-26-26-26m0 102c-33 0-61-21-72-51l-107 0 0-51 107 0c11-30 39-51 72-51 34 0 62 21 72 51l261 0 0 51-261 0c-10 30-38 51-72 51m256-256c-14 0-25 12-25 26 0 14 11 26 25 26 14 0 26-12 26-26 0-14-12-26-26-26m0 103c-33 0-61-22-72-51l-363 0 0-52 363 0c11-29 39-51 72-51 43 0 77 35 77 77 0 42-34 77-77 77"/>
<glyph glyph-name="filter-other" unicode="&#91;" d="M243 81c-104 0-189 84-189 188 0 104 85 189 189 189 104 0 188-85 188-189 0-104-84-188-188-188m0 431c-134 0-243-109-243-243 0-133 109-242 243-242 133 0 242 109 242 242 0 134-109 243-242 243m0-296c-30 0-54 24-54 53 0 30 24 54 54 54 29 0 53-24 53-54 0-29-24-53-53-53m0 161c-60 0-108-48-108-108 0-59 48-107 108-107 59 0 107 48 107 107 0 60-48 108-107 108"/>
<glyph glyph-name="filter-seeking" unicode="&#93;" d="M245 179c-28 19-80 62-80 97 0 12 3 41 40 41 9 0 20-12 20-21 0-11 9-20 20-20 12 0 21 9 21 20 0 9 11 21 20 21 36 0 40-29 40-41 0-35-52-78-81-97m41 178c-15 0-30-7-41-17-11 10-25 17-40 17-48 0-81-32-81-81 0-70 100-132 111-138 3-2 7-3 10-3 4 0 8 1 11 3 11 6 111 68 111 138 0 49-33 81-81 81m-20-261l0 19-41 0 0-19c-73 9-131 67-140 140l19 0 0 40-19 0c9 73 67 131 140 140l0-19 41 0 0 19c73-9 131-67 140-140l-19 0 0-40 19 0c-9-73-67-131-140-140z m222 180l-42 0c-9 96-85 172-180 181l0 42-41 0 0-42c-95-9-171-85-181-181l-41 0 0-40 41 0c10-96 86-172 181-181l0-42 41 0 0 42c95 9 171 85 180 181l42 0z"/>
<glyph glyph-name="security-checked-filled" unicode="&#94;" d="M321 489c34-17 79-41 156-58l9-1 0-9c0-302-223-418-225-419l-5-2-4 2c-3 1-226 106-226 419l0 9 9 1c77 17 123 41 156 58 26 13 44 23 65 23 21 0 39-10 65-23z m-153-224l82-73 104 159-18 11-90-139-64 57z"/>
<glyph glyph-name="phone" unicode="&#95;" d="M174 486c-35-2-62-30-62-64l0-344c0-18 8-35 22-47 12-10 26-16 42-17l154 0c33 0 60 27 60 60l0 352c0 33-27 59-60 60z m0-21l156 0c21-1 39-18 39-39l0-352c0-21-18-38-39-38l-154 0c-10 0-20 5-28 11-9 8-15 19-15 31l0 344c2 22 19 40 41 42z m-20-43c0 5 4 9 9 10l174 0c6 0 10-4 10-10l0-332c0-6-4-11-10-11l-172 0c-6 0-11 5-11 11z m22-11l150 0 0-311-150 0z m59-354c0 9 7 16 16 16 9 0 16-7 16-16 0-9-7-16-16-16-9 0-16 7-16 16z"/>
<glyph glyph-name="arrow-down" unicode="&#121;" d="M481 375c-6 6-16 6-23 0l-202-203-203 203c-6 6-16 6-23 0-6-7-6-17 0-23l214-214c3-3 7-5 12-5 4 0 8 2 11 5l214 214c7 6 7 16 0 23z"/>
<glyph glyph-name="arrow-up" unicode="&#96;" d="M256 379c-6 0-11-2-14-6l-205-205c-6-5-8-13-6-20 2-7 8-13 15-15 7-1 15 1 20 6l190 190 190-190c5-5 13-7 20-6 7 2 13 8 15 15 2 7 0 15-6 20l-205 205c-3 4-9 6-14 6z"/>
<glyph glyph-name="fetti" unicode="&#123;" d="M303 496l8 8 44-45-44-44-44 44z m-145-31c0 6 5 11 12 11l10 0c26 0 46-9 60-25 14-15 20-34 20-54 0-33-11-60-22-81 10-7 21-15 32-24 18 17 39 27 58 33l0 16c0 13 3 27 12 38 10 11 25 18 44 18l2 0c0 4 0 4 0 9 2 10 5 22 12 32 10 13 28 27 58 27l19 0c6 0 11-5 11-11l0-45c0-7-5-12-11-12l-12 0c-8 0-9-2-10-4-1-1-1-3-1-3l0-15c0-26-21-46-45-46l-4 0c2-3 4-6 4-11 0-18-10-31-21-39-11-7-23-10-33-13-3-1-6-1-12-2-5-2-13-3-21-6-4-1-8-2-12-3 7-8 13-15 19-23 17 9 44 18 80 18 21 0 45-6 65-18 20-12 36-32 36-58l0 0c0 0 1-14 1-14 0-3-1-6-4-8-2-2-5-3-8-3l-48 0c-6 0-12 5-12 11l0 8c0 2 0 2-1 4-2 1-6 3-10 5-10 4-26 6-42 6-10 0-20-1-29-1 3-9 6-17 6-25 2-12-1-24-9-32-3-4-7-6-12-7l1-1-327-111 125 315 0-1c1 4 3 8 6 11 8 7 17 10 27 10 9 0 19-2 29-6 1 9 2 19 2 28 0 7 0 17-3 24-3 6-6 10-19 10l-11 0c-7 0-12 5-12 12z m153 7l12-13-12-12-12 12z m-246-22l8 8 45-44-45-44-44 44z m116 4c20-1 33-7 42-18 9-10 14-24 14-39 0-23-6-42-14-59 1 9 3 16 3 25 0 1 0 1 0 2 0 7 0 19-5 31-6 12-20 24-40 24z m282-12l-7 0c-23 0-33-8-40-18l0 0c-2-3-6-13-7-22-2-9-2-17-2-17 0-6-5-10-11-10l-12 0c-14 0-22-5-26-10-5-6-8-15-8-24l0-23c0-5-3-9-8-11-21-6-47-18-66-42 12 6 25 12 38 15 9 2 16 4 22 6 6 1 11 2 11 2 0 0 0 0 0 0 10 3 20 6 27 10 6 5 10 9 10 20 0 2-1 6-3 9-2 2-3 3-4 4 0 1 0 1-1 2 0 0 0 0 0 0 0 0 0 0 0 0 0 0-1 1-1 1-2 4-3 8-1 12 2 4 6 6 10 6l23 0c12 0 22 9 22 23l0 15c0 0 0 8 5 15 5 8 15 15 29 15z m-390-15l13-13-13-12-12 12z m368-126l28 28 28-28-28-28z m-245 11c-10 4-18 6-24 6-6 0-9-1-11-3 0-1-1-2-2-4 0 0 0 0 0-1-1-2-1-4-1-8 1-7 3-17 8-28 10-22 29-49 55-74 25-25 52-45 74-55 11-5 21-7 28-8 3 0 6 0 8 1l1 0c2 1 3 2 4 3 2 2 4 6 3 14-1 7-3 15-7 25-31-4-45-10-45-10-5-2-11 0-14 5-3 4-2 10 2 14l25 25 0 0c1 1 4 3 7 6-6 9-14 17-22 26-3-1-5-3-7-4l-34-24c-5-3-11-2-14 2-4 3-5 9-2 14l23 35c1 2 2 4 4 6-10 8-20 16-30 22-3-5-6-8-9-12-5-5-8-8-9-9-4-4-10-4-14-1-4 3-6 8-5 13 1 3 5 12 8 24z m-168 6l-28-28 28-28 28 28z m115-47c1-2 2-4 3-6 11-25 32-54 59-81 27-27 56-48 81-59 1-1 2-1 3-1l-236-81z m318-58c-16 9-37 15-54 15-58 0-86-26-89-29 17 3 37 6 66 6 18 0 35-2 49-7 7-2 13-5 18-10 5-4 7-10 8-17l27 0c0 1 0 1 0 2 0 0 0 1 0 2 0 16-10 28-25 38z m-71-116l-44-44 44-45 44 45z m12-44l-12 12-12-12 12-13z"/>
<glyph glyph-name="info-square" unicode="&#124;" d="M231 500c9 8 19 12 30 12 11 0 21-4 29-12l210-210c16-16 16-42-1-59l-209-209c-17-16-43-16-59 0l-209 209c-16 17-16 43 0 59l209 210z m45-14c-4 4-10 6-15 6-6 0-11-2-16-6l0 0-209-210c-3-3-5-7-6-11 0-1 0-3 0-4 0-6 2-11 6-16l209-209c8-8 22-8 31 0 0 0 0 0 0 0l209 209c9 9 9 23 1 31z m-27-115c-3 0-4-2-4-4l0-145c0-3 2-4 4-4l23 0c3 0 4 2 4 4l0 145c0 3-2 4-4 4z m-4-190c0 2 1 4 4 4l24 0 0-1c2 0 4-1 4-4l0-26c0-2-1-4-4-4l-24 0c-2 0-4 1-4 4z"/>
<glyph glyph-name="profile" unicode="&#125;" d="M0 420c0 17 14 31 31 31l205 0c16 0 30-14 30-31l0-10 215 0c17 0 31-14 31-31l0-287c0-17-14-31-31-31l-71 0 0 21-21 0 0-21-266 0 0 21-21 0 0-21-71 0c-17 0-31 14-31 31z m236 10l-205 0c-6 0-11-4-11-10l0-328c0-6 5-10 11-10l51 0 0 20 61 0 0-20 226 0 0 20 61 0 0-20 51 0c6 0 11 4 11 10l0 287c0 6-5 10-11 10l-235 0 0 31c0 6-5 10-10 10z m-98-92c-34-1-39-27-31-57-1-1-4-4-3-9 1-9 4-11 7-11 1-8 6-18 9-20 0-1 0-2 0-4 0-4 0-8-1-13-6-19-55-13-58-50l154 0c-2 37-51 31-58 50 0 5 0 9 0 13 0 2 0 3 0 4 3 2 8 12 9 20 2 0 5 2 6 11 1 5-1 8-2 9 3 11 11 46-14 50-3 5-9 7-18 7z m128-62l0 21 185 0 0-21z m0-30l0-21 185 0 0 21z m0-72l0 21 185 0 0-21z"/>
<glyph glyph-name="caret-down" unicode="&#126;" d="M402 311c0-5-2-9-5-13l-128-128c-4-4-8-5-13-5-5 0-9 1-13 5l-128 128c-3 4-5 8-5 13 0 5 2 9 5 13 4 3 8 5 13 5l256 0c5 0 9-2 13-5 3-4 5-8 5-13z"/>
<glyph glyph-name="caret-left" unicode="&#92;" d="M347 384l0-256c0-5-1-9-5-13-4-3-8-5-13-5-5 0-9 2-13 5l-128 128c-3 4-5 8-5 13 0 5 2 9 5 13l128 128c4 3 8 5 13 5 5 0 9-2 13-5 4-4 5-8 5-13z"/>
<glyph glyph-name="caret-right" unicode="&#57344;" d="M329 256c0-5-2-9-5-13l-128-128c-4-3-8-5-13-5-5 0-9 2-13 5-4 4-5 8-5 13l0 256c0 5 1 9 5 13 4 3 8 5 13 5 5 0 9-2 13-5l128-128c3-4 5-8 5-13z"/>
<glyph glyph-name="caret-up" unicode="&#57345;" d="M402 165c0-5-2-10-5-13-4-4-8-6-13-6l-256 0c-5 0-9 2-13 6-3 3-5 8-5 13 0 5 2 9 5 12l128 128c4 4 8 6 13 6 5 0 9-2 13-6l128-128c3-3 5-7 5-12z"/>
<glyph glyph-name="info" unicode="&#57346;" d="M256 448c-106 0-192-86-192-192 0-106 86-192 192-192 106 0 192 86 192 192 0 106-86 192-192 192z m20-299c0-3-3-6-7-6l-26 0c-4 0-7 3-7 6l0 124c0 4 3 7 7 7l26 0c4 0 7-3 7-7z m-20 159c-13 0-23 10-23 23 0 13 10 23 23 23 13 0 23-10 23-23 0-13-10-23-23-23z"/>
<glyph glyph-name="show-password" unicode="&#57347;" d="M51 511c-28 0-51-23-51-51l0-205c0-28 23-51 51-51l155 0c33 37 91 77 152 77 55 0 104-31 137-63 10 9 17 23 17 37l0 205c0 28-23 51-51 51z m51-102c29 0 52-23 52-51 0-29-23-51-52-51-28 0-51 22-51 51 0 28 23 51 51 51z m154 0c28 0 51-23 51-51 0-29-23-51-51-51-28 0-51 22-51 51 0 28 23 51 51 51z m154 0c28 0 51-23 51-51 0-29-23-51-51-51-29 0-52 22-52 51 0 28 23 51 52 51z m-52-154c-84 0-153-85-153-102 0-17 69-102 153-102 85 0 154 89 154 102 0 13-69 102-154 102z m0-38l0-38c0-15 12-26 26-26l38 0c0-41-38-73-80-62-22 6-40 24-45 45-11 43 21 81 61 81z"/>
<glyph glyph-name="atom" unicode="&#57348;" d="M248 512c-16 0-32-8-44-22-13-13-24-32-33-55-3-9-7-19-9-29-11 2-21 5-30 6-12 2-24 3-34 3-11 0-21-1-30-3-18-4-33-13-41-28-9-15-9-32-4-50 5-18 16-36 32-55 6-8 13-15 20-23-7-8-14-15-20-23-16-19-27-37-32-55-5-18-5-35 4-50 8-15 23-24 41-28 18-4 40-4 64 0 9 1 19 4 30 6 2-10 6-20 9-29 9-23 20-42 33-55 12-14 28-22 44-22 17 0 32 8 45 22 13 13 24 32 32 55 4 9 7 19 10 29 10-2 20-5 30-6 24-4 45-4 63 0 19 4 34 13 42 28 8 15 9 32 4 50-6 18-17 36-32 55-6 8-13 15-21 23 8 8 15 15 21 23 15 19 26 37 32 55 5 18 4 35-4 50-8 15-23 24-42 28-9 2-18 3-29 3-11 0-22-1-34-3-10-1-20-4-30-6-3 10-6 20-10 29-8 23-19 42-32 55-13 14-28 22-45 22z m0-20c10 0 20-5 30-16 10-11 20-27 28-48 3-9 6-18 9-28-21-6-43-15-67-26-23 11-45 20-67 26 3 10 6 19 9 28 9 21 18 37 28 48 10 11 20 16 30 16z m-150-97c9 0 19-1 31-3 9-1 18-4 28-6-5-22-9-45-11-71-21-15-40-29-56-45-7 8-14 15-19 22-15 17-24 34-28 48-4 14-4 25 1 34 6 9 14 15 29 18 7 2 15 3 25 3z m301 0c9 0 18-1 25-3 14-3 23-9 28-18 5-9 6-20 2-34-4-14-14-31-28-48-6-7-12-14-19-22-17 16-36 30-57 45-2 26-5 49-10 71 10 2 19 5 28 6 11 2 22 3 31 3z m-222-15c15-5 31-10 47-17-9-5-19-11-28-16-10-6-19-11-28-17 2 18 5 35 9 50z m143 0c3-15 6-32 8-50-9 6-18 11-27 17-10 5-19 11-29 16 17 7 33 12 48 17z m-72-29c14-6 28-14 43-22 14-8 27-17 40-25 1-16 1-32 1-48 0-16 0-32-1-48-13-8-26-17-40-25-15-8-29-16-43-22-14 6-28 14-42 22-14 8-27 17-40 25-1 16-2 32-2 48 0 16 1 32 2 48 13 8 26 17 40 25 14 8 28 16 42 22z m0-34c-33 0-61-27-61-61 0-34 28-61 61-61 34 0 62 27 62 61 0 34-28 61-62 61z m0-20c23 0 41-18 41-41 0-23-18-41-41-41-22 0-41 18-41 41 0 23 19 41 41 41z m-104-8c0-11 0-22 0-33 0-11 0-22 0-33-14 11-27 22-39 33 12 11 25 22 39 33z m208 0c15-11 28-22 39-33-11-11-24-22-39-33 1 11 1 22 1 33 0 11 0 22-1 33z m-262-47c16-15 35-31 56-45 2-26 6-49 11-71-10-2-19-5-28-6-23-4-42-3-56 0-15 3-23 9-29 18-5 9-5 20-1 34 4 14 13 31 28 48 5 7 12 14 19 22z m317 0c7-8 13-15 19-22 14-17 24-34 28-48 4-14 3-25-2-34-5-9-14-15-28-18-14-3-34-4-56 0-9 1-18 4-28 6 5 22 8 45 10 71 21 14 40 30 57 45z m-239-60c9-6 18-11 28-17 9-5 19-10 29-15-17-7-33-13-48-18-4 15-7 32-9 50z m160 0c-2-18-5-35-8-50-15 5-31 11-48 18 10 5 19 10 29 15 9 6 18 11 27 17z m-80-44c24-11 46-20 67-26-3-10-6-19-9-28-8-21-18-37-28-48-10-11-20-16-30-16-10 0-20 5-30 16-10 11-19 27-28 48-3 9-6 18-9 28 22 6 44 15 67 26z"/>
<glyph glyph-name="communication" unicode="&#57349;" d="M194 500c-106 0-194-77-194-174 0-47 21-89 54-120l-1-6c-8-21-26-34-37-38-6-2-11-5-14-11-3-6-1-14 3-19 10-10 23-9 33-9 36 0 79 19 104 31l1 1 9 5-4 1 1 0c14-4 29-5 44-5 93 0 173 56 191 136l0 0c3 11 4 22 4 34 0 97-87 174-194 174z m0-22c96 0 172-69 172-152 0-10-1-20-3-29-16-68-86-119-170-119-14 0-27 1-39 4l-5 2-17-10c-24-12-66-29-94-29-4 0-4 1-7 1 16 8 34 22 43 48l0 0 4 19-5 4c-32 28-51 66-51 109 0 83 77 152 172 152z m-94-78l0-22 188 0 0 22z m0-55l0-23 188 0 0 23z m308-47c-1-3-1-7-2-10-1-4-2-8-3-12 51-19 84-59 84-103 0-32-16-61-46-84l-6-4 2-7c6-23 27-35 41-43-23-3-73 2-98 32l-4 5-6-1c-10-2-22-3-36-3-69 0-125 26-147 66-9 0-17 1-25 2 20-54 87-91 172-91 13 0 24 1 34 3 24-25 64-36 96-36 2 0 5 0 7 0 18 1 31 6 36 13 2 4 3 8 2 12-2 8-9 12-19 17-10 5-23 12-29 23 31 26 49 60 49 96 0 54-41 103-102 125z m-308-9l0-22 133 0 0 22z m277-66c-6-8-12-15-18-22l51 0 0 22z m-60-56c-15-9-32-16-50-22l143 0 0 22z"/>
<glyph glyph-name="credit-cards" unicode="&#57350;" d="M43 479c-23 0-43-20-43-44l0-239c0-21 15-38 36-42l14-81c4-23 27-39 50-35l364 65c23 4 39 27 35 50l-42 235c0 1 0 2-1 3l0 44c0 24-19 44-43 44z m0-22l370 0c12 0 21-10 21-22l0-32-412 0 0 32c0 12 9 22 21 22z m-21-109l412 0 0-152c0-12-9-21-21-21l-370 0c-12 0-21 9-21 21z m54-32l0-22 174 0 0 22z m380-46l21-121c3-11-5-23-17-25l-364-64c-12-3-23 5-25 17l-13 76 355 0c24 0 43 19 43 43z"/>
<glyph glyph-name="key" unicode="&#57351;" d="M348 512c-90 0-164-73-164-164 0-20 4-39 11-57l-192-191-3-4 0-69 3-4 20-20 4-3 69 0 4 3 30 31 3 3 0 24 25 0 3 3 31 31 3 3 0 15 14 0 3 3 21 20 3 3 0 15 14 0 3 2 38 39c18-7 37-11 57-11 90 0 164 74 164 164 0 91-74 164-164 164z m0-20c79 0 144-65 144-144 0-79-65-143-144-143-20 0-38 4-55 11 0 0 0 0-1 0-51 22-87 73-87 132 0 79 64 144 143 144z m0-31c-29 0-58-11-80-33l-7-8 7-7 145-145 7-7 8 7c44 44 44 116 0 160-22 22-51 33-80 33z m0-21c24 0 47-9 65-27 34-33 35-85 6-121l-127 127c16 13 36 21 56 21z m-144-169c15-29 38-52 67-67l-30-30-26 0 0-26-15-15-26 0 0-26-25-25-36 0 0-37-25-25-53 0-10 11 170 169c3 3 4 9 2 13-2 4-7 6-12 5-2-1-4-2-5-3l-160-160 0 33z"/>
<glyph glyph-name="circle-block" unicode="&#57352;" d="M256 512c-141 0-256-115-256-256 0-141 115-256 256-256 141 0 256 115 256 256 0 141-115 256-256 256z m-200-256c0 45 15 87 40 120l280-280c-33-25-75-40-120-40-110 0-200 90-200 200z m360-120l-280 280c33 25 75 40 120 40 110 0 200-90 200-200 0-45-15-87-40-120z"/>
<glyph glyph-name="chart" unicode="&#57353;" d="M44 500c-18 0-33-15-33-33l0-364c0-2 0-3 0-4l0-54c0-18 15-33 33-33l421 0c19 0 34 15 34 33l0 54c0 1 0 2 0 4l0 364c0 18-15 33-34 33z m0-22l421 0c7 0 12-5 12-11l0-355-43 0c0 0 0 0-1 1-1 2-3 6-5 11-4 11-7 27-7 43 0 6-5 11-11 11-6 0-11-5-11-11 0-16-3-31-6-42-2-6-4-10-6-12-1-1-1-1-1-1l-36 0c-1 3-2 9-4 16-2 15-5 37-7 60-4 47-7 102-7 134 0 7-5 11-11 11-6 0-11-4-11-11 0-31-2-86-7-133-2-24-4-46-7-61-1-7-2-12-3-16l-53 0c0 1 0 1 0 2-1 6-3 16-4 27-2 24-5 58-7 93-4 72-7 156-7 199 0 3-2 6-4 8-2 2-5 3-8 3-6 0-10-5-11-11 0-43-3-126-7-198-2-36-4-69-7-93-1-12-2-22-4-28 0-1 0-1 0-2l-32 0c0 2-1 4-2 8-3 9-5 23-7 37-4 29-7 63-7 77 0 6-5 11-11 11-6 0-11-5-11-11 0-14-3-48-7-77-2-14-4-28-7-37-1-4-2-6-2-8l-62 0 0 355c0 6 5 11 11 11z m167-293c1-16 2-34 3-46 1-12 3-22 4-30 1-3 1-6 2-9 1-1 1-3 3-5 1-2 4-5 10-5l66 0c4 0 7 1 9 3 1 1 2 3 3 4 1 3 2 5 3 7 2 6 3 13 4 21 1 7 2 17 3 26 1-9 2-20 4-27 1-8 2-14 4-20 1-2 1-5 3-7 1-1 2-3 3-4 2-2 5-3 9-3l44 0c8 0 13 5 17 10 2 3 4 7 5 11 2-4 3-8 6-11 3-5 8-10 16-10l45 0 0-45c0-6-5-11-12-11l-421 0c-6 0-11 5-11 11l0 45 67 0c5 0 8 2 10 5 2 2 3 3 4 6 2 4 3 8 5 13 1 5 2 12 3 18 1-6 2-13 3-18 2-5 3-9 5-13 1-3 2-4 4-6 2-3 5-5 10-5l44 0c6 0 9 4 10 5 2 2 2 4 3 5 1 3 1 6 2 10 2 7 3 17 4 29 1 12 2 30 4 46z"/>
<glyph glyph-name="deactivated-user" unicode="&#106;" d="M399 321l0 79c0 53-73 112-143 112-71 0-144-59-144-112l0-79c0-35 16-106 61-141l-140-67c0 0-32-14-32-31l0-48c0-18 14-32 32-32l302 0 0 32-302 0 0 32c0 13 9 17 13 18l140 67c10 4 17 14 18 25 2 11-3 22-11 28-33 27-49 86-49 117l0 79c0 34 58 80 112 80 54 0 111-46 111-80l0-79c0-31-13-90-47-117-8-7-13-17-12-28 2-12 9-21 19-26l9-4 14 26-10 7c44 35 59 103 59 142z m63-247l45 45c6 6 6 16 0 23-7 6-17 6-23 0l-45-45-45 45c-6 6-16 6-23 0-6-7-6-17 0-23l45-45-45-45c-6-6-6-17 0-23 7-6 17-6 23 0l45 45 45-45c6-6 16-6 23 0 6 6 6 17 0 23z"/>
<glyph glyph-name="menu-circle" unicode="&#57354;" d="M256 492c-130 0-236-106-236-236 0-130 106-236 236-236 130 0 236 106 236 236 0 130-106 236-236 236z m0-21c119 0 215-96 215-215 0-119-96-215-215-215-119 0-215 96-215 215 0 119 96 215 215 215z m-133-133c-4 0-7-2-9-5-2-3-2-7 0-10 2-4 5-6 9-6l266 0c4 0 7 2 9 6 2 3 2 7 0 10-2 3-5 5-9 5z m31-82c-4 0-8-2-9-5-2-3-2-7 0-10 1-4 5-6 9-5l204 0c4-1 8 1 9 5 2 3 2 7 0 10-1 3-5 5-9 5z m20-82c-4 0-7-2-9-5-2-3-2-7 0-10 2-4 5-5 9-5l164 0c4 0 7 1 9 5 2 3 2 7 0 10-2 3-5 5-9 5z"/>
<glyph glyph-name="double-tick" unicode="&#57355;" d="M388 420c0 0-1 0-1 0-2-1-4-2-6-4l-249-298-114 115c-4 4-11 4-15 0-4-4-4-11 0-15l123-123c2-2 5-3 8-3 3 0 5 2 7 4l256 307c3 3 4 8 2 12-2 4-7 6-11 5z m113 0c-1 0-1 0-1 0-3-1-5-2-6-4l-249-298-26 26c-3 3-7 4-10 3-4-1-7-4-8-7-1-4 0-8 3-11l34-34c2-2 5-3 8-3 3 0 6 2 8 4l256 307c3 3 3 8 1 12-2 4-6 6-10 5z"/>
<glyph glyph-name="rocket" unicode="&#57356;" d="M502 502l-11 0c0 0-75-1-148-37-23-12-46-28-67-49-26-26-63-69-96-109l-88 0c0 0 0 0-1 0-3 0-5-1-7-4l-51-61c-2-3-3-6-2-10 1-3 4-6 7-6l63-16c-1-1-4-5-4-5l-1-1-1-2c0 0-1-3 0-7 0-1 0-3 0-4l-22-37c0 0-1-2-1-4 0-1 0-2 0-4 0-3 0-6 2-10 4-8 11-18 27-35 17-16 27-23 35-27 4-2 7-2 10-2 2 0 3 0 4 0 2 0 4 1 4 1l37 22c1 0 3 0 4 0 4-1 7 0 7 0l2 1 2 1c0 0 3 3 4 3l16-62c0-3 3-6 6-7 4-1 7 0 10 2l61 51c3 2 4 5 4 8l0 88c41 34 84 70 109 96 21 21 37 44 48 67 36 73 38 148 38 148z m-22-22c-1-15-5-69-34-128-11-21-25-43-44-62-25-25-69-62-110-96-1-1-2-2-2-2-48-40-91-74-94-76-1 0-3 0-7 1-7 3-21 11-41 31-19 20-28 34-31 41-1 4-1 6-1 7 2 3 36 45 75 93 1 1 2 2 3 3 33 41 70 84 96 110 19 19 41 33 62 44 59 29 113 33 128 34z m-132-81c-28 0-51-23-51-51 0-28 23-51 51-51 28 0 51 23 51 51 0 28-23 51-51 51z m0-20c17 0 31-14 31-31 0-17-14-31-31-31-17 0-31 14-31 31 0 17 14 31 31 31z m-251-92l66 0c-20-24-36-45-48-59l-56 14z m9-119c5-9 14-20 28-34 13-14 25-23 34-28l-22-14c0 1 0 1-2 1-4 2-13 8-28 23-15 15-21 24-23 28 0 2 0 2-1 2z m181-5l0-66-45-38-14 56c14 11 35 28 59 48z m-221-42c-17-13-32-15-46-28-7-7-12-16-15-29-3-13-5-30-5-53l0-11 11 0c47 0 70 8 83 22 14 14 16 29 27 44l-17 12c-13-18-16-33-24-42-8-7-24-13-58-14 0 15 1 29 3 37 3 10 6 15 10 19 7 8 23 11 43 27z m78-29l-1-1 0 0c0 0 1 0 1 1z"/>
<glyph glyph-name="binoculars" unicode="&#57357;" d="M143 461c-29 0-55-21-59-50-1-1-1-1-1-2l0 0c0-2-1-3-1-5-3-2-6-4-8-7-12-12-18-27-21-40 0 0 0 0 0 0-13-41-37-137-43-160-6-13-10-28-10-43 0-57 46-103 102-103 56 0 100 44 102 99 12-9 29-17 52-17 23 0 40 8 52 17 2-55 46-99 102-99 56 0 102 46 102 103 0 11-2 22-5 33-2 6-32 126-46 170l0 0c-4 13-9 28-21 40-3 3-7 6-11 9 0 1 0 2 0 3l0 0c0 1 0 1-1 2-4 29-30 50-59 50-34 0-62-28-62-62 0-7 1-14 4-21-5-6-9-11-12-13-1-1-1-1-1-1-12 8-26 14-41 14-15 0-30-5-41-14 0 0 0 0-2 1-3 3-7 8-12 14 2 7 3 13 3 20 0 34-28 62-62 62z m0-21c24 0 41-17 41-41 0-1 0-1 0-2-13 11-30 21-52 21-10 0-19-1-26-3 5 15 20 25 37 25z m226 0c17 0 31-10 37-25-7 2-15 3-24 3-23 0-41-11-54-22 0 1 0 2 0 3 0 24 17 41 41 41z m-237-43c21 0 35-11 47-23 0-5 4-9 9-10 4-5 8-10 13-14 3-3 6-5 10-7 5-1 12 0 16 3l0 1c7 6 19 10 30 10 11 0 22-4 30-11l0 1 1 0c4-4 10-5 15-4 4 2 7 4 10 7 4 4 9 9 13 14 4 2 6 5 7 8 12 13 28 25 49 25 14 0 23-2 30-5 2-1 3-2 5-3 0 0 1 0 1 0 3-2 5-4 7-6 8-8 13-20 17-32 0 0 0 0 0 0 8-26 21-76 32-117-18 14-40 22-64 22-47 0-86-31-99-74 0 0-1-1-2-2 0 0-13-26-53-26-40 0-53 26-53 26-1 1-2 2-2 3-13 42-52 73-99 73-23 0-44-8-61-21 10 42 23 91 31 116l0 0c4 12 8 24 16 32 8 8 20 14 44 14z m124-141c-23 0-41-18-41-41 0-22 18-41 41-41 23 0 41 19 41 41 0 23-18 41-41 41z m-154-20c46 0 82-37 82-82 0-46-36-82-82-82-45 0-82 36-82 82 0 6 1 12 2 18 2 1 4 3 4 6 0 0 3 11 3 13 14 26 42 45 73 45z m154 0c11 0 20-10 20-21 0-11-9-20-20-20-11 0-20 9-20 20 0 11 9 21 20 21z m154 0c35 0 65-23 77-55 0 0 1-3 1-3 0-1 0-2 1-3 2-7 3-14 3-21 0-46-37-82-82-82-46 0-82 36-82 82 0 45 36 82 82 82z m-360-72c0 0-1 0-1 0-5-1-8-6-8-10 0-34 27-62 61-62 4 0 8 2 9 5 2 3 2 7 0 11-1 3-5 5-9 5-23 0-41 17-41 41 1 3-1 5-3 7-2 2-5 3-8 3z m318 0c-1 0-1 0-2 0-4-1-8-6-8-10 0-34 28-62 62-62 4 0 7 2 9 5 2 3 2 7 0 11-2 3-5 5-9 5-23 0-41 17-41 41 0 3-1 5-3 7-2 2-5 3-8 3z"/>
<glyph glyph-name="chat-dots" unicode="&#57358;" d="M256 470c-129 0-235-90-235-204 0-66 36-123 92-160 0-3 0-6-3-17-4-13-11-32-26-53l-10-15 18 0c63 0 100 41 106 48 18-4 38-7 58-7 129 0 235 91 235 204 0 114-106 204-235 204z m0-19c121 0 216-83 216-185 0-101-95-185-216-185-21 0-41 2-59 7l-6 2-4-5c0 0-29-34-77-42 9 16 15 30 18 41 4 15 4 26 4 26l0 5-4 3c-54 34-88 87-88 148 0 102 95 185 216 185z m-102-164c-12 0-21-9-21-21 0-11 9-20 21-20 11 0 20 9 20 20 0 12-9 21-20 21z m102 0c-11 0-20-9-20-21 0-11 9-20 20-20 11 0 20 9 20 20 0 12-9 21-20 21z m102 0c-11 0-20-9-20-21 0-11 9-20 20-20 12 0 21 9 21 20 0 12-9 21-21 21z"/>
<glyph glyph-name="security-keyhole" unicode="&#57359;" d="M256 512c-25 0-46-14-78-30-31-16-73-36-139-50l-8-2 0-8c0-157 55-262 110-327 55-65 111-91 111-91l4-2 5 2c0 0 220 114 220 418l0 8-8 2c-66 14-108 34-139 50-32 16-53 30-78 30z m0-20c17 0 36-12 68-28 31-16 74-35 136-50-3-278-191-382-204-389-7 3-51 26-100 83-51 61-102 159-104 306 62 15 105 34 136 50 32 16 51 28 68 28z m0-144c-23 0-41-18-41-41 0-14 7-26 19-34l-19-84 82 0-19 84c12 7 19 20 19 34 0 23-18 41-41 41z"/>
<glyph glyph-name="send" unicode="&#57360;" d="M69 471c-11 0-19-8-19-18 0-2 0-4 1-5 0 0 0 0 0 0l18-127-57-37 395-38-395-37 57-38-18-126c-1-2-1-3-1-5 0-11 8-19 19-19 2 0 5 1 7 2l0-1 1 1 0 0c0 0 1 0 1 0l411 206 0 0c7 3 11 10 11 17 0 8-4 15-11 17 0 1 0 1 0 1l0 0-411 205c-1 0-1 1-2 1-2 1-5 1-7 1-11 0-19-8-19-18 0-2 0-4 1-5 0 0 0 0 0 0l18-127-57-37 395-38-395-37 57-38-18-126c-1-2-1-3-1-5 0-11 8-19 19-19 2 0 5 1 7 2l0-1 1 1 0 0c0 0 1 0 1 0l411 206 0 0c7 3 11 10 11 17 0 8-4 15-11 17 0 1 0 1 0 1l0 0-411 205c-1 0-1 1-2 1-2 1-5 1-7 1z"/>
</font>
</defs>
</svg>
