<?xml version="1.0"?>
<svg xmlns="http://www.w3.org/2000/svg" viewBox="0 0 50 50">
    <path style="text-indent:0;text-align:start;line-height:normal;text-transform:none;block-progression:tb;-inkscape-font-specification:Bitstream Vera Sans" d="M 24.90625 1.96875 A 1.0001 1.0001 0 0 0 24.78125 2 A 1.0001 1.0001 0 0 0 24.40625 2.15625 L 2.65625 10.0625 A 1.0001 1.0001 0 0 0 2 11 L 2 37.75 A 1.0001 1.0001 0 0 0 2.78125 39 L 2.8125 39 A 1.0001 1.0001 0 0 0 2.90625 39.03125 L 24.6875 47.90625 A 1.0001 1.0001 0 0 0 25.46875 47.90625 L 47.375 38.9375 A 1.0001 1.0001 0 0 0 47.46875 38.90625 A 1.0001 1.0001 0 0 0 47.71875 38.71875 A 1.0001 1.0001 0 0 0 47.75 38.71875 A 1.0001 1.0001 0 0 0 48 37.6875 L 48 11 A 1.0001 1.0001 0 0 0 47.34375 10.0625 L 25.5625 2.15625 A 1.0001 1.0001 0 0 0 25.5 2.125 L 25.46875 2.09375 A 1.0001 1.0001 0 0 0 25.34375 2.0625 A 1.0001 1.0001 0 0 0 25.28125 2.03125 A 1.0001 1.0001 0 0 0 25.25 2.03125 A 1.0001 1.0001 0 0 0 25.1875 2 A 1.0001 1.0001 0 0 0 24.90625 1.96875 z M 24 4.4375 L 24 29.3125 L 4 36.5625 L 4 11.6875 L 24 4.4375 z M 26 4.4375 L 46 11.6875 L 46 36.5625 L 41 34.75 L 41 17.3125 A 1.0001 1.0001 0 0 0 40.34375 16.375 L 31.34375 13.0625 A 1.0001 1.0001 0 0 0 30.84375 13 A 1.0001 1.0001 0 0 0 30 14 L 30 30.75 L 26 29.3125 L 26 4.4375 z M 18.875 13 A 1.0001 1.0001 0 0 0 18.625 13.0625 L 9.625 16.65625 A 1.0001 1.0001 0 0 0 9 17.59375 L 9 27.59375 A 1.0001 1.0001 0 0 0 10.375 28.53125 L 19.375 25 A 1.0001 1.0001 0 0 0 20 24.0625 L 20 14 A 1.0001 1.0001 0 0 0 18.875 13 z M 32 15.4375 L 39 18 L 39 34.03125 L 32 31.5 L 32 15.4375 z M 18 15.46875 L 18 23.375 L 11 26.15625 L 11 18.25 L 18 15.46875 z M 25 31.0625 L 44.21875 38.03125 L 25.0625 45.875 L 5.8125 38.03125 L 25 31.0625 z" overflow="visible" font-family="Bitstream Vera Sans"/>
</svg>
