<?xml version="1.0" standalone="no"?>
<!DOCTYPE svg PUBLIC "-//W3C//DTD SVG 1.1//EN" "http://www.w3.org/Graphics/SVG/1.1/DTD/svg11.dtd">
<svg xmlns="http://www.w3.org/2000/svg">
<metadata>Generated by Fontastic.me</metadata>
<defs>
<font id="renti" horiz-adv-x="512">
<font-face font-family="renti" units-per-em="512" ascent="480" descent="-32"/>
<missing-glyph horiz-adv-x="512" />

<glyph glyph-name="alert" unicode="&#97;" d="M209 452c0 22 18 41 40 41 23 0 41-19 41-41 0-5-1-10-3-15 57-15 94-64 94-127 0-79 20-115 38-136 9-10 18-16 26-22 4-3 8-6 11-9 3-4 6-10 6-15 0-14-8-26-20-34-12-8-28-13-47-17-25-5-56-8-89-9 3-7 4-14 4-21 0-34-27-61-61-61-33 0-61 27-61 61 0 7 2 14 5 21-34 1-64 4-89 9-19 4-35 9-47 17-12 8-21 20-21 34 0 5 3 11 6 15 4 3 7 6 11 9 8 6 17 12 26 22 19 21 38 57 38 136 0 63 38 112 95 127-2 5-3 10-3 15z m61 0c0 11-9 20-21 20-11 0-20-9-20-20 0-11 9-20 20-20 12 0 21 9 21 20z m3-32c54-10 88-52 88-110 0-83 21-125 43-149 11-12 22-20 29-25 4-3 7-5 8-7 1-1 1-1 1-1 0 0 0 0 0 0 0-7-3-11-12-17-8-5-22-10-39-14-36-7-86-10-142-10-55 0-106 3-141 10-18 4-31 9-40 14-8 6-11 10-11 17 0 0 0 0 0 0 0 0 0 0 1 1 1 2 4 4 7 7 8 5 19 13 30 25 22 24 43 66 43 149 0 58 33 100 88 109 6-5 14-8 23-8 9 0 17 4 24 9z m-24-353c-12 0-23 0-35 0-3-6-5-13-5-20 0-23 18-41 40-41 23 0 41 18 41 41 0 7-2 14-6 20-11 0-23 0-35 0z"/>
<glyph glyph-name="wall" unicode="&#98;" d="M507 501l-481 0c-6-1-9-6-9-12l0-456c0-7 4-11 11-11l479 0c7 0 11 4 11 11l0 456c0 7-4 12-11 12z m-331-23l-137 0 0-91 137 0z m23 0l137 0 0-91-137 0z m297 0l-137 0 0-91 137 0z m-457-114l57 0 0-91-57 0z m80-91l137 0 0 91-137 0z m160 91l0-91 137 0 0 91z m217-91l-57 0 0 91 57 0z m-457-23l137 0 0-91-137 0z m160 0l137 0 0-91-137 0z m160-91l137 0 0 91-137 0z m-320-114l57 0 0 91-57 0z m217 0l-137 0 0 91 137 0z m23 0l137 0 0 91-137 0z m217 0l-57 0 0 91 57 0z"/>
<glyph glyph-name="bath" unicode="&#99;" d="M11 402c-4-1-8-5-8-10l0-36c-1-4 1-9 5-12 0 0 0 0 1 0l0 0 1 0 0-1 1 0c0 0 1 0 2 0l0 0c12 0 20-8 20-19l0-69c0-49 33-90 77-103-2-9-9-14-19-14-3 0-6-2-8-5-2-3-2-7 0-10 2-3 5-5 8-5 19 0 34 13 38 30 4 0 8 0 11 0l215 0c4 0 8 0 11 0 5-17 20-30 38-30 4 0 7 2 9 5 2 3 2 7 0 10-2 3-5 5-9 5-9 0-17 5-19 14 45 13 78 54 78 103l0 69c0 11 8 19 20 19 0 0 1 0 2 0 2 1 3 2 4 3 0 0 0 0 1 0l0 0c0 1 0 1 1 1l0 1c1 1 1 2 1 3 0 1 0 1 0 1l0 40c0 5-4 10-9 10z m12-20l450 0 0-19-450 0z m426-39l-402 0c3-6 5-12 5-19l0-69c0-48 40-88 88-88l215 0c49 0 88 40 88 88l0 69c0 7 3 13 6 19z"/>
<glyph glyph-name="bed" unicode="&#100;" d="M34 384c0 57 77 83 248 83 172 0 249-26 249-83l0-66-40 0 0 26c0 46-28 63-99 63-72 0-100-17-100-63l0-26-19 0 0 26c0 46-28 63-100 63-71 0-99-17-99-63l0-26-40 0z m0-314l0 228 497 0 0-228-80 0 0 30-337 0 0-30z"/>
<glyph glyph-name="camera" unicode="&#101;" d="M250 461c-20 0-38-15-46-35l-6-16-55 0 0 10c0 5-4 10-10 10l-72 0c-5 0-10-5-10-10l0-15c-29-9-51-35-51-67l0-215c0-40 32-72 72-72l368 0c40 0 72 32 72 72l0 215c0 39-32 72-72 72l-23 0-7 16c-8 20-26 35-45 35z m0-21l115 0c8 0 21-9 26-21l9-23c2-4 5-7 10-7l30 0c29 0 52-23 52-51l0-215c0-29-23-51-52-51l-368 0c-29 0-52 22-52 51l0 215c0 25 19 46 43 50 5 1 9 5 9 10l0 12 51 0 0-11c0-5 4-10 10-10l72 0c4 0 8 3 9 7l9 23c5 12 19 21 27 21z m-76-204c0 73 60 133 133 133 74 0 133-60 133-133 0-74-59-134-133-134-73 0-133 60-133 134z m-102 122c-12 0-21-9-21-20 0-11 9-21 21-21 11 0 20 10 20 21 0 11-9 20-20 20z m348-122c0 62-50 112-113 112-62 0-112-50-112-112 0-63 50-113 112-113 63 0 113 50 113 113z"/>
<glyph glyph-name="cancel" unicode="&#102;" d="M0 256c0 141 115 256 256 256 141 0 256-115 256-256 0-141-115-256-256-256-141 0-256 115-256 256z m357-101c5 4 5 12 0 16l-84 85 84 85c5 4 5 12 0 16-4 5-12 5-16 0l-85-84-85 84c-4 5-12 5-16 0-5-4-5-12 0-16l84-85-84-85c-5-4-5-12 0-16 2-3 5-4 8-4 3 0 6 1 8 4l85 84 85-84c2-3 5-4 8-4 3 0 6 1 8 4z"/>
<glyph glyph-name="caret" unicode="&#103;" d="M477 393c-6 0-11-2-15-6l-203-203-203 203c-4 4-9 6-15 6-9 0-17-5-20-13-4-9-2-18 5-24l218-218c8-9 22-9 31 0l218 218c6 6 8 15 5 24-4 8-12 13-21 13z"/>
<glyph glyph-name="check" unicode="&#104;" d="M479 489c-9 0-17-5-21-12l-244-373-158 136c-7 7-17 10-26 7-10-3-17-11-18-20-2-10 2-20 10-26l181-156c5-5 13-7 20-6 8 1 14 5 18 12l261 398c5 8 6 18 1 27-5 8-14 13-24 13z"/>
<glyph glyph-name="check-circle" unicode="&#105;" d="M0 256c0 141 115 256 256 256 141 0 256-115 256-256 0-141-115-256-256-256-141 0-256 115-256 256z m408 103c-3 3-7 4-12 4-4 0-8-1-11-4l-187-187-71 71c-6 6-17 6-23 0-7-7-7-17 0-23l83-83c3-3 7-5 11-5 4 0 9 2 12 5l198 198c7 7 7 17 0 24z"/>
<glyph glyph-name="close" unicode="&#106;" d="M32 489l-28-28 213-210-213-210 28-28 214 210 213-210 28 28-213 210 213 210-28 28-213-210z"/>
<glyph glyph-name="cvc" unicode="&#107;" d="M0 424c0 31 25 56 56 56l400 0c31 0 56-25 56-56l0-246c0-31-25-56-56-56l-46 0c-31-54-88-90-154-90-66 0-123 36-154 90l-46 0c-31 0-56 25-56 56z m456 34l-400 0c-19 0-34-15-34-34l0-22 468 0 0 22c0 19-15 34-34 34z m-200-90c53 0 100-27 128-67l-227 0c-7-7-12-15-16-23l256 0c9-20 15-43 15-67 0-26-6-51-18-72 0-1 0-1-1-2 0 0 0 0 0-1l0 0c-1-1-1-2-2-3l-243 0c6-8 12-16 20-23l207 0c-28-34-71-56-119-56-59 0-110 33-137 81 0 2-1 4-2 5-11 21-17 46-17 71 0 87 70 157 156 157z m-118-22l-116 0 0-168c0-19 15-34 34-34l35 0c-9 21-13 43-13 67 0 54 23 102 60 135z m236 0l116 0 0-168c0-19-15-34-34-34l-35 0c9 21 13 43 13 67 0 54-23 102-60 135z m-214-143c0 23 13 37 33 37 17 0 30-11 31-27l-15 0c-1 9-7 14-16 14-11 0-18-9-18-24 0-15 7-25 18-25 9 0 15 5 16 13l15 0c-1-15-14-26-31-26-20 0-33 14-33 38z m177 37c-20 0-33-14-33-37 0-24 13-38 33-38 17 0 30 11 31 26l-15 0c-1-8-7-13-16-13-11 0-18 10-18 25 0 15 7 24 18 24 9 0 15-5 16-14l15 0c-1 16-14 27-31 27z m-81-74l-24 71 17 0 16-55 0 0 16 55 16 0-23-71z"/>
<glyph glyph-name="delete" unicode="&#108;" d="M512 256c0 142-114 256-256 256-142 0-256-114-256-256 0-142 114-256 256-256 142 0 256 114 256 256z m-382 109c5 11 17 19 29 19 9 0 17-3 23-9l87-88 87 88c6 5 13 9 21 9 13 0 25-7 30-19 5-12 2-26-7-35l-87-87 87-87c8-8 11-19 9-30-3-11-12-20-23-23-11-2-22 1-30 9l-87 87-87-87c-8-8-20-11-31-9-11 3-19 12-22 23-3 11 0 22 9 30l87 87-87 87c-10 9-12 23-8 35z"/>
<glyph glyph-name="door" unicode="&#109;" d="M57 482c0 5 3 10 8 10l367 0c5 0 10-4 10-10l0-486c0-6-5-10-10-10l-365 0c-6 0-10 4-10 10z m365-10l-345 0 0-466 20 0 0 436c0 5 4 9 9 10l285 0c6 0 10-5 10-10l0-436 21 0z m-304-40l263 0 0-426-263 0z m182-203c0 11 9 20 20 20 11 0 21-9 21-20 0-11-10-20-21-20-11 0-20 9-20 20z"/>
<glyph glyph-name="ellipsis" unicode="&#110;" d="M324 408c0 33-27 60-60 60-34 0-61-27-61-60 0-34 27-61 61-61 33 0 60 27 60 61z m0-173c0 34-27 61-60 61-34 0-61-27-61-61 0-33 27-60 61-60 33 0 60 27 60 60z m-60-111c33 0 60-27 60-61 0-33-27-61-60-61-34 0-61 28-61 61 0 34 27 61 61 61z"/>
<glyph glyph-name="room" unicode="&#111;" d="M254 499c-1-1-1-1-2-1-1 0-3-1-4-1l-234-86c-5-1-8-5-8-10l0-289c0-2 0-6 2-8 1-3 4-4 7-5l0 0c1 0 1 0 1 0l235-96c3-1 6-1 9 0l236 97c0 0 1 0 1 0 1 1 2 1 3 2l0 0c3 3 4 7 3 11l0 288c0 5-3 9-7 10l-235 86c0 0-1 0-1 0l0 0c-1 0-1 0-2 1 0 0 0 0 0 0l-1 0c0 0 0 0 0 0-1 0-2 1-3 1z m-10-27l0-268-216-79 0 269z m237-78l-216 78 0-268 44-16 0 181c0 5 3 10 9 11 2 0 3 0 5-1l97-36c5-1 7-5 7-10l0-188 54-20z m-292-14c-1-1-2-1-3-1l-97-39c-4-2-7-6-7-10l0-108c0-4 2-7 5-9 3-2 7-2 10-1l97 38c4 2 7 6 7 10l0 109c0 3-2 6-4 8-2 2-5 3-8 3z m217-54l-76 27 0-173 76-27z m-227 27l0-85-75-30 0 85z m283-244l-207 76-207-76 207-84z"/>
<glyph glyph-name="right-fill" unicode="&#112;" d="M178 504c-3 0-5-2-8-4l-68-68c-5-4-5-12 0-16l162-164-164-162c-4-4-4-12 0-16l68-69c5-4 12-4 17 0l240 239c5 4 5 11 0 16l-238 240c-3 2-6 4-9 4z"/>
<glyph glyph-name="plus" unicode="&#113;" d="M0 256c0 141 115 256 256 256 141 0 256-115 256-256 0-141-115-256-256-256-141 0-256 115-256 256z m267-11l123 0 0 22-123 0 0 123-22 0 0-123-123 0 0-22 123 0 0-123 22 0z"/>
<glyph glyph-name="person" unicode="&#114;" d="M156 386c0 63 52 115 115 115 64 0 115-52 115-115l0-69c0-37-18-71-46-92l0-52c0-1 1-2 3-5 3-3 9-6 16-10 14-7 35-14 55-24 21-10 43-23 59-41 17-19 28-44 28-75l0-12-460 0 0 12c0 31 12 56 28 74 17 19 39 32 59 42 21 10 41 17 56 24 7 4 12 7 15 10 3 3 3 4 3 5l0 52c-27 21-46 55-46 92z m207 0c0 51-40 92-92 92-51 0-92-41-92-92l0-69c0-32 17-60 41-77l5-3 0-64c0-9-4-16-10-22-6-5-13-9-21-13-16-8-36-16-56-25-19-10-38-21-51-36-12-13-18-28-21-48l410 0c-2 20-9 36-20 48-14 15-32 26-52 36-19 9-39 16-55 24-8 4-15 8-21 14-6 5-11 13-11 22l0 64 5 3c25 17 41 45 41 77z"/>
<glyph glyph-name="move" unicode="&#115;" d="M192 437l71 75 71-75c6-6 9-15 7-23-2-9-8-15-16-17-8-2-16 0-22 6l-18 19 0-85c1-9-4-17-11-21-7-4-15-4-22 0-7 4-11 12-11 21l0 85-18-19c-5-6-14-8-22-6-7 2-13 8-15 17-2 8 0 17 6 23z m-101-110c-6 0-12-3-16-7l-75-71 75-72c9-8 24-9 34 0 9 9 9 23 0 32l-19 17 85 0c9 0 17 5 21 12 4 6 4 15 0 22-4 7-12 11-21 11l-85 0 19 18c7 6 9 16 5 25-4 8-13 13-23 13z m307-14c4 9 12 14 22 14 6 0 12-2 17-7l75-71-75-71c-6-6-15-9-23-7-9 2-15 8-17 16-2 8 0 16 6 22l19 18-85 0c-9 0-17 4-21 11-4 7-4 15 0 22 4 7 12 11 21 11l85 0-19 18c-7 6-9 16-5 24z m-157-138c0 13 9 24 22 24 6 0 12-2 16-7 4-4 6-11 6-17l0-85 18 19c4 4 10 7 16 7 9 0 17-6 21-15 3-9 1-19-6-26l-53-56c-1-2-3-4-5-5l-13-14-13 14c-2 1-3 3-5 5l-53 56c-7 7-9 17-6 26 4 9 12 15 21 15 6 0 12-3 16-7l18-19z"/>
<glyph glyph-name="minus" unicode="&#116;" d="M0 256c0 141 115 256 256 256 141 0 256-115 256-256 0-141-115-256-256-256-141 0-256 115-256 256z m122-11l268 0 0 22-268 0z"/>
<glyph glyph-name="location" unicode="&#117;" d="M243 503c-78 0-141-63-141-140 0-64 34-137 67-196 33-58 66-101 66-101 2-3 5-4 8-4 2 0 5 1 7 4 0 0 33 44 66 102 33 59 67 132 67 195 0 77-63 140-140 140z m0-19c67 0 121-54 121-121 0-56-32-128-64-186-27-47-49-78-57-90-9 12-31 43-58 89-32 57-64 130-64 187 0 67 54 121 122 121z m-71-131c0 38 32 70 71 70 38 0 70-32 70-70 0-39-32-70-70-70-39 0-71 31-71 70z m71 50c28 0 50-22 50-50 0-28-22-51-50-51-29 0-51 23-51 51 0 28 22 50 51 50z m-199-270c25 12 59 21 99 27 6 1 11-3 12-8 1-6-3-11-9-12-38-5-71-14-93-25-12-6-20-11-25-17-6-5-7-10-7-14 0-6 4-12 14-20 10-8 26-15 47-22 40-12 97-21 161-21 63 0 120 9 160 21 21 7 37 14 47 22 10 8 14 14 14 20 0 4-1 9-7 14-5 6-13 11-25 17-22 11-55 20-93 25-6 1-10 6-9 12 1 5 6 9 12 8 40-6 74-15 99-27 13-6 23-13 31-21 7-8 12-18 12-28 0-14-9-27-22-36-13-10-31-18-53-25-43-14-102-22-166-22-65 0-124 8-167 22-22 7-40 15-53 25-13 9-22 22-22 36 0 11 5 20 12 28 8 8 18 15 31 21z"/>
<glyph glyph-name="letter" unicode="&#118;" d="M21 431l0-354 492 0 0 354z m20-19l452 0 0-25c-4-4-179-156-193-169-13-11-26-13-33-13-7 0-20 2-33 13-15 13-189 165-193 169z m180-208c-13 12-156 136-180 157l0-264 452 0 0 264c-24-21-167-145-181-157-16-15-34-19-45-19-11 0-29 4-46 19z"/>
<glyph glyph-name="left-fill" unicode="&#119;" d="M348 504c3 0 6-2 8-4l69-68c5-4 5-12 0-16l-162-164 163-162c5-4 5-12 1-16l-69-69c-4-4-11-4-16 0l-240 239c-5 4-5 11 0 16l238 240c2 2 5 4 8 4z"/>
<glyph glyph-name="left" unicode="&#120;" d="M359 491c-6-1-12-3-16-7l-218-216c-9-8-9-22 0-30l218-216c6-6 14-8 22-6 7 2 13 8 15 15 2 8 0 16-6 21l-203 201 203 201c7 6 9 15 5 24-3 8-11 13-20 13z"/>
<glyph glyph-name="exit" unicode="&#121;" d="M4 467c0 16 13 29 29 29l331 0c16 0 29-13 29-29l0-78-19 20 0 58c0 6-5 10-10 10l-331 0c-6 0-10-4-10-10l0-428c0-6 4-10 10-10l331 0c5 0 10 4 10 10l0 58 19 20 0-78c0-16-13-29-29-29l-331 0c-16 0-29 13-29 29z m361-105c1 4 4 6 7 7l1 0c3 0 6-1 8-3l106-106 7-7-7-7-106-106c-2-3-6-4-10-3-3 1-6 3-7 7-1 4 0 7 3 10l90 89-288 0c-5 0-10 4-10 10 0 5 4 9 9 10l289 0-90 89c-2 3-3 6-2 10z"/>
<glyph glyph-name="left-circle" unicode="&#122;" d="M256 512c-141 0-256-115-256-256 0-141 115-256 256-256 141 0 256 115 256 256 0 141-115 256-256 256z m0-22c129 0 234-105 234-234 0-129-105-234-234-234-129 0-234 105-234 234 0 129 105 234 234 234z m25-115c2 2 5 3 7 3 5 1 10-1 12-6 2-4 1-9-3-13l-103-103 103-103c5-5 5-12 0-16-4-5-11-5-16 0l-111 111c-2 2-3 5-3 8 0 3 1 6 3 8z"/>
<glyph glyph-name="star" unicode="&#65;" d="M242 493c2 3 6 6 10 6 4 0 7-3 9-6l61-159 168-9c4 0 7-2 9-6 1-4 0-9-3-11l-131-108 43-163c1-4-1-8-4-11-3-2-8-2-11 0l-141 91-142-91c-3-2-7-2-11 0-3 3-5 7-4 11l43 163-130 108c-3 2-5 7-3 11 1 4 4 6 8 6l168 9z m64-172l-54 140-54-140c-2-4-5-6-9-6l-149-8 116-95c3-3 4-7 3-11l-38-144 125 81c4 2 8 2 11 0l125-81-38 144c-1 4 0 8 3 11l116 95-148 8c-4 0-8 2-9 6z"/>
<glyph glyph-name="star-fill" unicode="&#66;" d="M111 14c-2 0-4 1-6 2-3 2-5 7-4 11l43 161-130 106c-4 2-5 6-4 10 1 4 5 7 9 7l167 9 60 157c2 3 6 5 10 5 4 0 8-2 9-5l60-157 167-9c4 0 8-3 9-7 1-4 0-7-3-10l-130-106 44-161c1-4 0-8-4-11-3-2-8-3-11 0l-141 91-141-91c-1-2-2-2-4-2z"/>
<glyph glyph-name="sofa" unicode="&#67;" d="M176 451c-31 0-57-10-76-29-19-19-30-46-30-77l0-7c-29-7-51-33-51-64 0-31 22-56 51-63l0-57c0-27 17-51 40-62l0-26c0-5 5-10 10-10l61 0c6 0 10 5 10 10l0 20 163 0 0-20c0-5 4-10 10-10l61 0c5 0 10 5 10 10l0 26c24 11 40 35 40 62l0 57c29 7 51 32 51 63 0 31-22 57-51 64l0 7c0 31-11 58-29 77-19 19-46 29-77 29z m0-20l193 0c26 0 47-9 62-23 15-15 24-37 24-63l0-5c-34-3-61-32-61-66 0-11-2-26-9-37-6-11-14-19-31-19l-163 0c-16 0-25 8-31 19-7 11-9 26-9 37 0 34-27 63-61 66l0 5c0 26 9 48 24 63 15 14 36 23 62 23z m-45-157c0 25-21 46-46 46-25 0-46-21-46-46 0-24 19-43 42-45l11-1-2-11c0-2 0-3 0-5l0-58c0-21 13-38 32-44 1-1 2-1 3-1 0 0 0 0 0 0l1-1c3-1 7-1 12-1l270 0c4 0 8 0 12 1 0 0 0 1 1 1 20 6 34 23 34 45l0 58c0 2 0 3 0 5l-2 11 11 1c23 2 42 21 42 45 0 24-19 44-43 45-1 0-2 1-3 1-25 0-46-21-46-46 0-14-2-32-11-48-9-15-26-28-49-28l-163 0c-23 0-40 13-49 28-9 16-11 34-11 48z m0-187c2-1 4-1 7-1l33 0 0-10-40 0z m283-11l0 11c-2-1-4-1-6-1l-34 0 0-10z"/>
<glyph glyph-name="setting" unicode="&#68;" d="M210 484c1 5 6 9 11 9l59 0c5 0 9-4 10-9l11-64c13-3 25-8 36-14l53 37c4 3 10 3 13-1l42-41c4-4 4-10 1-14l-37-53c6-12 11-23 14-36l64-10c6-1 9-6 9-11l0-59c0-5-3-9-8-10l-65-11c-3-13-8-25-14-36l38-52c3-5 2-11-1-14l-42-42c-4-4-9-4-14-1l-53 37c-11-6-23-11-36-15l-11-64c-1-5-5-8-10-8l-59 0c-5 0-10 3-11 9l-10 63c-13 4-25 9-36 15l-53-37c-4-3-10-2-14 1l-41 42c-4 3-4 9-1 14l37 52c-6 11-11 23-15 36l-63 11c-5 1-9 5-9 10l0 59c0 5 4 10 9 11l63 10c4 13 9 25 15 36l-37 53c-3 4-2 10 1 14l42 41c4 4 9 4 14 1l52-37c11 6 23 11 36 15z m61-12l-41 0-10-61c-1-4-4-7-8-8-16-4-30-10-44-18-3-2-8-2-12 0l-49 36-29-29 35-50c2-4 3-8 0-12-8-13-14-28-18-44-1-4-4-7-9-8l-60-10 0-41 60-10c5-1 8-4 9-8 4-16 10-31 18-44 2-4 2-8 0-12l-36-50 29-28 50 35c4 2 8 2 12 0 13-8 28-14 44-18 4-1 7-4 8-8l10-61 41 0 10 61c1 4 4 7 8 8 16 4 31 10 44 19 4 2 8 2 12-1l50-35 29 28-36 51c-3 3-3 8-1 11 8 14 15 28 18 44 1 4 5 7 9 8l61 10 0 41-61 10c-4 1-8 4-9 8-3 16-10 30-18 44-2 3-2 8 1 11l35 51-28 29-50-36c-4-3-8-3-12-1-14 8-28 15-44 19-4 1-7 4-8 8z m-20-139c-47 0-86-39-86-86 0-47 39-85 86-85 47 0 85 38 85 85 0 47-38 86-85 86z m64-86c0 36-29 65-64 65-36 0-64-29-64-65 0-35 28-64 64-64 35 0 64 29 64 64z"/>
<glyph glyph-name="search" unicode="&#69;" d="M14 314c0 103 84 187 187 187 103 0 187-84 187-187 0-47-17-90-45-122l143-144-31-31-144 145c-31-22-69-36-110-36-103 0-187 84-187 188z m352 0c0 91-74 165-165 165-91 0-165-74-165-165 0-92 74-166 165-166 91 0 165 74 165 166z"/>
<glyph glyph-name="fullscreen" unicode="&#70;" d="M321 485c0 14 12 24 25 24l148 0 0-148c0-14-11-25-24-25-1 0-2 0-3 0-13 1-22 12-22 25l0 98-100 0c-14 1-25 12-24 26z m-294-124l0 148 147 0c9 0 17-5 22-13 4-7 4-17 0-24-5-8-13-13-22-13l-98 0 0-98c0-9-5-17-12-22-8-4-18-4-25 0-8 5-13 13-12 22z m24-160c-14 0-25-11-24-24l0-148 147 0c1 0 2 0 3 0 13 1 23 13 22 26-1 13-12 23-25 23l-98 0 0 99c0 6-3 13-7 17-5 5-12 8-18 7z m394-24c0 13 10 24 24 24 7 1 13-2 18-7 4-4 7-11 7-17l0-148-148 0c-9 0-17 4-21 12-5 8-5 17 0 25 4 8 12 12 21 12l99 0z"/>
</font>
</defs>
</svg>
